<?xml version="1.0" encoding="UTF-8" standalone="no"?>
<!-- Created with Inkscape (http://www.inkscape.org/) -->

<svg
   xmlns:dc="http://purl.org/dc/elements/1.1/"
   xmlns:cc="http://creativecommons.org/ns#"
   xmlns:rdf="http://www.w3.org/1999/02/22-rdf-syntax-ns#"
   xmlns:svg="http://www.w3.org/2000/svg"
   xmlns="http://www.w3.org/2000/svg"
   xmlns:sodipodi="http://sodipodi.sourceforge.net/DTD/sodipodi-0.dtd"
   xmlns:inkscape="http://www.inkscape.org/namespaces/inkscape"
   width="512"
   height="512"
   id="svg2"
   version="1.1"
   inkscape:version="0.48.4 r9939"
   sodipodi:docname="main_icon.svg"
   inkscape:export-filename="/tmp/icon.png"
   inkscape:export-xdpi="90.000008"
   inkscape:export-ydpi="90.000008">
  <defs
     id="defs4" />
  <sodipodi:namedview
     id="base"
     pagecolor="#ffffff"
     bordercolor="#666666"
     borderopacity="1.0"
     inkscape:pageopacity="0.0"
     inkscape:pageshadow="2"
     inkscape:zoom="1.4142136"
     inkscape:cx="285.52441"
     inkscape:cy="260.35214"
     inkscape:document-units="px"
     inkscape:current-layer="layer1"
     showgrid="false"
     showguides="false"
     inkscape:snap-global="false"
     inkscape:window-width="1920"
     inkscape:window-height="1056"
     inkscape:window-x="0"
     inkscape:window-y="24"
     inkscape:window-maximized="1">
    <inkscape:grid
       type="xygrid"
       id="grid3836"
       empspacing="5"
       visible="true"
       enabled="true"
       snapvisiblegridlinesonly="true" />
  </sodipodi:namedview>
  <metadata
     id="metadata7">
    <rdf:RDF>
      <cc:Work
         rdf:about="">
        <dc:format>image/svg+xml</dc:format>
        <dc:type
           rdf:resource="http://purl.org/dc/dcmitype/StillImage" />
        <dc:title></dc:title>
      </cc:Work>
    </rdf:RDF>
  </metadata>
  <g
     inkscape:label="Layer 1"
     inkscape:groupmode="layer"
     id="layer1"
     transform="translate(0,-540.36218)">
    <path
       style="fill:#b3b3b3;fill-opacity:1;stroke:#b3b3b3;stroke-width:8;stroke-linecap:round;stroke-linejoin:round;stroke-miterlimit:4;stroke-opacity:1;stroke-dasharray:none"
       d="m 204.36236,911.26243 c -0.73676,-0.10107 -1.33957,-0.33348 -1.33957,-0.5165 0,-0.183 -0.62532,-0.4475 -1.38959,-0.58773 -0.76431,-0.14024 -1.8128,-0.614 -2.33003,-1.05276 -0.51721,-0.43876 -1.08886,-0.79778 -1.27032,-0.79778 -0.53939,0 -4.01788,-3.61485 -4.29229,-4.46053 -0.1393,-0.42926 -0.42624,-0.78048 -0.63767,-0.78048 -0.21141,0 -0.3844,-0.24437 -0.3844,-0.54305 0,-0.29867 -0.3514,-0.93935 -0.78092,-1.42374 -0.42949,-0.48438 -0.91022,-1.55488 -1.06824,-2.37891 -0.15804,-0.82402 -0.50218,-1.62802 -0.76474,-1.78667 -0.66157,-0.39976 -0.66882,-12.72753 -0.006,-13.13278 0.25831,-0.15834 0.69942,-1.04071 0.98023,-1.96084 0.30175,-0.98869 0.89756,-1.87553 1.45675,-2.16824 0.52037,-0.2724 1.05955,-0.93724 1.19817,-1.47742 0.15244,-0.59416 0.7114,-1.13878 1.41492,-1.37867 0.63959,-0.21808 1.39878,-0.82753 1.68702,-1.35438 0.28826,-0.52683 0.92979,-1.05746 1.42568,-1.17919 0.49588,-0.12174 1.33512,-0.58913 1.86502,-1.03863 0.52988,-0.44953 1.21325,-0.8173 1.51863,-0.8173 0.30532,0 0.55516,-0.16967 0.55516,-0.37704 0,-0.20739 0.63505,-0.60169 1.41118,-0.8762 0.77616,-0.27454 1.64214,-0.92124 1.92445,-1.43714 0.28226,-0.51592 0.76337,-0.93803 1.06911,-0.93803 0.53532,0 2.46258,-1.79701 3.92209,-3.65711 0.38591,-0.49179 0.82653,-1.45755 0.97917,-2.14614 0.15265,-0.68858 0.48607,-1.38149 0.74096,-1.5398 0.67494,-0.41924 0.62175,-8.86592 -0.0573,-9.08729 -0.28038,-0.0914 -0.50979,-0.3905 -0.50979,-0.66462 0,-0.27416 -0.46368,-0.89281 -1.03041,-1.37481 -0.56673,-0.48199 -1.03044,-1.10538 -1.03044,-1.38532 0,-0.27996 -0.60279,-0.7689 -1.33954,-1.08656 -0.73676,-0.31767 -1.56498,-0.77016 -1.84048,-1.00551 -1.39083,-1.18826 -1.79049,-1.41066 -3.36304,-1.87149 -0.9352,-0.27406 -1.70037,-0.63133 -1.70037,-0.79391 0,-0.16263 -0.46367,-0.4095 -1.03042,-0.54863 -0.56674,-0.13912 -1.03045,-0.40735 -1.03045,-0.59602 0,-0.1887 -0.83464,-0.57168 -1.85475,-0.85104 -1.02014,-0.27937 -1.8548,-0.66576 -1.8548,-0.8587 0,-0.19291 -0.28403,-0.35077 -0.63118,-0.35077 -0.34715,0 -0.73796,-0.27212 -0.86844,-0.60472 -0.1305,-0.3326 -0.47618,-0.60475 -0.76816,-0.60475 -0.51339,0 -1.29832,-0.70892 -3.12466,-2.82207 -0.78575,-0.90913 -0.85549,-1.39539 -0.712,-4.96277 0.089,-2.2118 0.35481,-4.07753 0.60318,-4.23313 0.24424,-0.15304 0.57056,-0.67482 0.72512,-1.15953 0.35635,-1.1174 3.65829,-4.41588 4.76422,-4.75921 0.45996,-0.14277 0.83627,-0.4068 0.83627,-0.58669 0,-0.17989 0.60279,-0.56521 1.33956,-0.85627 0.73676,-0.29103 1.48789,-0.76658 1.66918,-1.05679 0.18128,-0.29018 0.5986,-0.52761 0.92738,-0.52761 0.32876,0 0.59777,-0.1871 0.59777,-0.41581 0,-0.22869 0.32459,-0.53338 0.72132,-0.67709 0.95508,-0.34597 5.46126,-4.72362 5.46126,-5.30554 0,-0.25036 0.18946,-0.45522 0.42102,-0.45522 0.23155,0 0.64672,-0.4989 0.92256,-1.10867 0.2759,-0.60977 0.73559,-1.3484 1.02161,-1.64142 0.28603,-0.29299 0.52003,-0.79191 0.52003,-1.10869 0,-0.31675 0.16833,-0.57593 0.37409,-0.57593 0.20573,0 0.61174,-0.90709 0.90226,-2.01576 0.2905,-1.10868 0.66228,-2.01577 0.82621,-2.01577 0.16391,0 0.42338,-0.7257 0.57655,-1.61264 0.1532,-0.88692 0.40542,-1.61262 0.56049,-1.61262 0.15508,0 0.51838,-1.21911 0.80737,-2.70912 0.28897,-1.49003 0.67354,-2.80532 0.85459,-2.92287 0.18107,-0.11758 0.44405,-0.92476 0.58442,-1.79375 0.14036,-0.869 0.42492,-1.68541 0.63236,-1.81421 0.20743,-0.12881 0.61446,-1.27737 0.90454,-2.55233 0.29006,-1.27499 0.66861,-2.31815 0.84123,-2.31815 0.17261,0 0.43604,-0.54427 0.58542,-1.20948 0.14937,-0.6652 0.40725,-1.20946 0.5731,-1.20946 0.1658,0 0.53916,-0.90709 0.82966,-2.01577 0.29048,-1.1087 0.67641,-2.01579 0.85757,-2.01579 0.18117,0 0.44579,-0.45353 0.58805,-1.00788 0.14223,-0.55434 0.42617,-1.00788 0.63096,-1.00788 0.2048,0 0.58662,-0.63499 0.84846,-1.41106 0.26186,-0.77608 0.64719,-1.41104 0.8563,-1.41104 0.20911,0 0.38023,-0.2739 0.38023,-0.60867 0,-0.33479 0.37095,-0.91937 0.82433,-1.29907 0.45339,-0.37971 0.82435,-0.88187 0.82435,-1.11592 0,-0.23406 0.32459,-0.71181 0.72129,-1.06173 0.39671,-0.34988 1.09227,-1.15109 1.54565,-1.78045 0.45339,-0.62934 1.17543,-1.42653 1.60453,-1.77156 0.42911,-0.34501 1.07828,-0.96701 1.44262,-1.38225 1.27775,-1.45631 2.26497,-2.26872 2.75689,-2.26872 0.27305,0 0.6032,-0.27211 0.73369,-0.60472 0.13047,-0.3326 0.52128,-0.60475 0.86844,-0.60475 0.34716,0 0.63117,-0.16965 0.63117,-0.37703 0,-0.20739 0.64919,-0.60669 1.44262,-0.88731 0.79342,-0.28064 1.44262,-0.6408 1.44262,-0.80037 0,-0.15959 0.55643,-0.40967 1.23651,-0.55577 0.68008,-0.14612 1.23652,-0.41112 1.23652,-0.58891 0,-0.38227 3.22137,-1.2253 4.68205,-1.2253 0.56082,0 1.08502,-0.19182 1.16492,-0.42627 0.0843,-0.24724 2.13272,-0.52634 4.87739,-0.66454 3.78295,-0.75971 6.96382,-0.19201 10.26408,0.01 2.36254,0.13736 4.40277,0.39655 4.53391,0.57596 0.13112,0.1794 1.33864,0.54528 2.68339,0.81307 1.34472,0.26775 2.55034,0.64813 2.67911,0.84527 0.12879,0.19711 0.83695,0.48633 1.57369,0.64268 0.73676,0.15634 1.33956,0.41741 1.33956,0.58012 0,0.16274 0.64918,0.54503 1.44261,0.84952 0.79343,0.30452 1.44258,0.70121 1.44258,0.88156 0,0.18035 0.26905,0.3279 0.59779,0.3279 0.32879,0 0.74611,0.22709 0.92739,0.50461 0.18128,0.27755 0.81926,0.75107 1.4177,1.05228 0.59849,0.30122 1.31443,0.96128 1.59105,1.4668 0.27658,0.50553 0.92576,1.14049 1.44259,1.41104 0.51682,0.27054 1.16601,0.90551 1.44261,1.41105 0.2766,0.50552 0.93202,1.14378 1.45654,1.41834 0.52448,0.27456 1.05548,0.89605 1.17993,1.38108 0.12447,0.48502 0.60228,1.3059 1.06185,1.8242 0.45955,0.51828 0.83557,1.18671 0.83557,1.48539 0,0.29868 0.17802,0.54306 0.39562,0.54306 0.21759,0 0.61792,0.72567 0.88957,1.6126 0.2717,0.88694 0.62944,1.61262 0.79502,1.61262 0.16561,0 0.43148,0.67992 0.59086,1.51093 0.15938,0.83098 0.45389,1.6101 0.65445,1.73133 0.20056,0.12125 0.59201,1.98121 0.8699,4.13329 0.27789,2.15204 0.65321,3.91282 0.83405,3.91282 0.18081,0 0.44293,2.28675 0.44293,5.73114 0.3951,1.27473 0.19257,2.46428 -0.44167,5.25759 -1.22027,-3.01299 -1.42907,-3.63618 -1.44797,-4.97526 -0.18784,-0.12376 -1.18701,-1.6994 -1.45293,-3.57145 -0.26589,-1.87206 -0.64567,-3.50483 -0.84398,-3.62841 -0.19827,-0.12356 -0.49229,-0.99569 -0.65332,-1.93807 -0.16103,-0.94237 -0.4269,-1.71341 -0.59081,-1.71341 -0.16392,0 -0.5357,-0.9071 -0.82621,-2.01577 -0.29049,-1.10869 -0.69297,-2.01578 -0.89441,-2.01578 -0.20142,0 -0.48261,-0.45356 -0.62484,-1.0079 -0.14225,-0.55433 -0.4015,-1.00789 -0.57612,-1.00789 -0.17462,0 -0.54243,-0.53121 -0.81739,-1.18049 -0.27496,-0.64928 -0.76114,-1.27855 -1.08044,-1.3984 -0.31928,-0.11983 -0.58051,-0.40893 -0.58051,-0.64247 0,-0.55215 -4.15001,-4.61139 -5.06606,-4.95521 -0.38741,-0.1454 -0.70436,-0.43976 -0.70436,-0.65409 0,-0.21435 -0.64918,-0.61932 -1.4426,-0.89997 -0.79345,-0.28062 -1.44259,-0.63553 -1.44259,-0.78869 0,-0.15316 -0.50823,-0.40323 -1.12936,-0.5557 -0.62114,-0.1525 -1.23814,-0.44946 -1.37114,-0.65992 -0.13297,-0.21048 -1.43318,-0.59421 -2.88932,-0.85283 -1.45616,-0.25855 -2.75652,-0.62463 -2.88972,-0.81344 -0.32003,-0.45365 -11.12987,-0.48136 -11.45714,-0.0293 -0.13955,0.19269 -1.35393,0.56945 -2.69867,0.83723 -1.34472,0.26778 -2.55219,0.65656 -2.68324,0.86394 -0.13105,0.20742 -0.74646,0.50187 -1.36763,0.65435 -0.62113,0.15249 -1.12934,0.42726 -1.12934,0.61061 0,0.18334 -0.63503,0.55796 -1.41117,0.83249 -0.77616,0.27452 -1.64215,0.92122 -1.92443,1.43713 -0.28228,0.51589 -0.75607,0.93801 -1.05291,0.93801 -0.7028,0 -5.09144,4.29263 -5.09144,4.98009 0,0.29031 -0.44956,0.76317 -0.99902,1.0508 -0.54944,0.28762 -1.10083,0.91981 -1.22527,1.40482 -0.12447,0.48503 -0.60232,1.30592 -1.06186,1.82422 -0.45956,0.51828 -0.83559,1.1867 -0.83559,1.48538 0,0.29866 -0.178,0.54305 -0.39561,0.54305 -0.2176,0 -0.61791,0.72567 -0.88959,1.6126 -0.27167,0.88697 -0.62996,1.61264 -0.79619,1.61264 -0.16626,0 -0.42427,0.47547 -0.57336,1.0566 -0.14913,0.58111 -0.51775,1.29781 -0.8192,1.59264 -0.30139,0.29484 -0.67456,1.36142 -0.82923,2.37023 -0.15467,1.0088 -0.43469,1.83418 -0.62228,1.83418 -0.18755,0 -0.47141,0.6799 -0.63081,1.51091 -0.1594,0.83099 -0.45368,1.60999 -0.654,1.73106 -0.2003,0.1211 -0.5811,1.66359 -0.84619,3.42774 -0.2651,1.76418 -0.63615,3.30631 -0.82454,3.42695 -0.1884,0.12066 -0.4683,2.79659 -0.62204,5.94654 -0.15374,3.14996 -0.43641,5.72719 -0.62821,5.72719 -0.19179,0 -0.34868,0.99781 -0.34868,2.21736 0,1.21953 0.15662,2.21734 0.34803,2.21734 0.19145,0 0.46828,2.5848 0.61522,5.74398 0.15158,3.25959 0.44672,5.80252 0.68234,5.87933 0.22839,0.0744 0.41525,0.66118 0.41525,1.30378 0,1.76094 0.95117,6.82754 1.28174,6.82754 0.15928,0 0.41714,0.90708 0.57305,2.01577 0.15588,1.10867 0.42617,2.01579 0.6006,2.01579 0.17446,0 0.55336,1.08851 0.842,2.41892 0.28866,1.33043 0.66864,2.41894 0.84446,2.41894 0.17576,0 0.45134,0.77104 0.61237,1.7134 0.16103,0.9424 0.44692,1.80961 0.63526,1.92716 0.18835,0.11755 0.57888,1.43286 0.86788,2.92287 0.28897,1.49003 0.65524,2.70914 0.81392,2.70914 0.15866,0 0.41596,0.99783 0.57175,2.21736 0.15578,1.21955 0.41761,2.21737 0.58185,2.21737 0.59522,0 1.25509,7.774 1.25561,14.79239 5.2e-4,6.92285 -0.6252,13.83163 -1.2527,13.83163 -0.1666,0 -0.42808,0.81641 -0.58106,1.81423 -0.15297,0.9978 -0.4351,1.81417 -0.62696,1.81417 -0.19186,0 -0.5865,0.9071 -0.87699,2.01577 -0.29052,1.10867 -0.67861,2.01579 -0.86247,2.01579 -0.18384,0 -0.33425,0.27783 -0.33425,0.61739 0,0.33956 -0.26145,0.71552 -0.58105,0.83548 -0.3196,0.11995 -0.70382,0.70388 -0.8539,1.29761 -0.15006,0.59373 -0.81597,1.56817 -1.47978,2.16544 -0.66384,0.59728 -1.20699,1.24977 -1.20699,1.44999 0,0.58325 -2.78493,3.22436 -3.69921,3.5082 -0.45907,0.14251 -0.83467,0.42831 -0.83467,0.6351 0,0.20679 -0.28404,0.37598 -0.6312,0.37598 -0.34715,0 -0.72997,0.2518 -0.85071,0.55957 -0.12074,0.30777 -1.08867,0.79322 -2.15096,1.07885 -1.0623,0.28559 -2.06209,0.7114 -2.22174,0.94624 -0.29631,0.43583 -10.81881,0.72614 -13.41444,0.37009 l 0,0 z"
       id="path3838"
       inkscape:connector-curvature="0"
       sodipodi:nodetypes="csssssssccccsccssscssscscsscssssssscsssscscscscsccsscssccsssscsscscsscsssssssscscscsscsssscsssccsccsscsscsccsccsssssscsscccscsscscsscssssscccscsccsscsscccsscsccssscscssssscsscsssssssssssssssscssscssscsccc" />
    <path
       style="fill:#b3b3b3;fill-opacity:1;stroke:#b3b3b3;stroke-width:16.99999809;stroke-miterlimit:4;stroke-opacity:1;stroke-dasharray:none"
       d="m 201.37411,976.88509 c 0,-0.19929 -1.29833,-0.48983 -2.8852,-0.64566 -1.58686,-0.15593 -2.88521,-0.41764 -2.88521,-0.5815 0,-0.16385 -1.02013,-0.52136 -2.26694,-0.7943 -1.24682,-0.27288 -2.26695,-0.64452 -2.26695,-0.82571 0,-0.18111 -0.63126,-0.44514 -1.4028,-0.58678 -0.77155,-0.14155 -1.50093,-0.5074 -1.62085,-0.81314 -0.11991,-0.30557 -0.78698,-0.67803 -1.48239,-0.82747 -0.69541,-0.1493 -1.26437,-0.43858 -1.26437,-0.64265 0,-0.20416 -0.23184,-0.37427 -0.51523,-0.3781 -0.28334,-0.009 -0.95199,-0.45742 -1.48585,-1.0078 -0.53385,-0.55062 -1.12398,-1.001 -1.31139,-1.001 -0.46602,0 -6.57967,-6.0309 -6.57967,-6.49073 0,-0.20247 -0.46367,-0.76257 -1.03043,-1.24465 -0.56673,-0.48199 -1.03042,-1.11568 -1.03042,-1.40838 0,-0.29262 -0.18549,-0.53204 -0.41219,-0.53204 -0.22668,0 -0.41215,-0.27775 -0.41215,-0.61727 0,-0.33959 -0.26689,-0.71759 -0.59308,-0.8401 -0.32618,-0.12235 -0.71463,-0.76392 -0.86322,-1.42561 -0.14858,-0.66169 -0.51951,-1.29663 -0.82434,-1.41097 -0.30481,-0.11444 -0.67301,-0.73716 -0.81821,-1.38387 -0.14523,-0.64669 -0.39971,-1.17574 -0.56555,-1.17574 -0.16583,0 -0.53916,-0.90713 -0.82968,-2.01585 -0.29049,-1.10865 -0.67585,-2.01569 -0.85639,-2.01569 -0.18051,0 -0.45859,-0.67999 -0.61801,-1.51094 -0.15937,-0.83101 -0.44976,-1.60766 -0.64529,-1.72587 -0.19552,-0.11822 -0.58052,-1.56995 -0.85552,-3.22606 -0.27499,-1.65629 -0.65044,-3.11031 -0.83428,-3.2313 -0.18385,-0.12094 -0.45908,-1.84446 -0.61159,-3.82997 -0.38047,-2.17835 -0.4376,-3.57824 -0.14552,-5.52496 0.42801,-1.20958 0.35476,-1.6328 1.03043,-2.25967 0.56282,-0.52218 1.02331,-1.10481 1.02331,-1.29472 0,-0.72085 3.19014,-1.20962 5.12574,-0.78533 2.19336,0.48079 3.45575,1.55824 3.80036,3.24362 0.1346,0.65829 0.40701,1.19687 0.60538,1.19687 0.19836,0 0.36042,0.58961 0.36011,1.31027 -5.5e-4,2.1346 0.92377,7.96229 1.2633,7.96229 0.1724,0 0.43881,0.72565 0.592,1.61257 0.15322,0.88701 0.41822,1.61266 0.58892,1.61266 0.1707,0 0.53864,0.99785 0.81769,2.21738 0.279,1.21952 0.66474,2.2173 0.85716,2.2173 0.19243,0 0.47207,0.54434 0.62146,1.20951 0.14935,0.6652 0.40507,1.20945 0.5682,1.20945 0.16315,0 0.53136,0.63502 0.81827,1.41113 0.28692,0.77601 0.69513,1.41098 0.90714,1.41098 0.21203,0 0.38551,0.26315 0.38551,0.58466 0,0.32161 0.23214,0.72981 0.51588,0.90706 0.28374,0.1774 0.76784,0.80141 1.0758,1.38678 0.30796,0.58539 0.98277,1.28569 1.4996,1.55624 0.51685,0.27049 1.17692,0.92549 1.4669,1.45538 0.28994,0.52993 0.66184,0.96355 0.82643,0.96355 0.1646,0 0.73606,0.45046 1.26992,1.00091 0.53384,0.55054 1.18266,1.00408 1.44176,1.00788 0.25912,0.009 0.57118,0.26192 0.69345,0.57362 0.12229,0.31178 0.79131,0.68896 1.48671,0.83842 0.69539,0.14939 1.26435,0.42425 1.26435,0.6107 0,0.18649 0.60282,0.46699 1.33957,0.62334 0.73675,0.15634 1.44596,0.44721 1.57603,0.6464 0.28972,0.44365 4.48537,1.14363 6.87349,1.14688 0.96345,0 1.75174,0.18373 1.75174,0.40539 0,0.22176 0.83465,0.40326 1.8548,0.40326 1.02012,0 1.85475,-0.1815 1.85475,-0.40326 0,-0.22166 1.01254,-0.40316 2.25011,-0.40316 2.99326,0 8.46637,-0.81352 8.46637,-1.25841 0,-0.19479 0.45044,-0.35419 1.001,-0.35419 0.55053,0 1.27917,-0.27205 1.61924,-0.60466 0.34005,-0.3327 0.85019,-0.60472 1.13365,-0.60472 0.86438,0 3.25302,-0.94756 3.25302,-1.29056 0,-0.17716 0.28405,-0.32207 0.6312,-0.32207 0.34717,0 0.73155,-0.25576 0.85417,-0.56838 0.12264,-0.31254 0.66951,-0.67802 1.21528,-0.81189 0.54575,-0.13401 1.55886,-0.78544 2.25131,-1.44748 0.6925,-0.66211 1.40789,-1.20381 1.5898,-1.20381 0.4806,0 4.58689,-3.983 4.58689,-4.44917 0,-0.21673 0.46371,-0.78833 1.03045,-1.27041 0.56674,-0.48194 1.03042,-1.04956 1.03042,-1.26137 0,-0.21172 0.4562,-0.79852 1.01376,-1.30388 0.55757,-0.50551 1.13788,-1.4027 1.28956,-1.99387 0.15167,-0.59108 0.53014,-1.17025 0.841,-1.2869 0.31089,-0.11672 0.56524,-0.45588 0.56524,-0.75378 0,-0.29783 0.25196,-0.6866 0.55997,-0.86394 0.30795,-0.17732 0.79965,-1.04303 1.09262,-1.9239 0.29299,-0.88086 0.7829,-1.84623 1.08875,-2.14534 0.3058,-0.29912 0.55605,-0.80304 0.55605,-1.11978 0,-0.31682 0.16136,-0.57598 0.35859,-0.57598 0.19723,0 0.59228,-0.81638 0.87792,-1.81417 0.2856,-0.99784 0.65749,-1.81421 0.82638,-1.81421 0.16889,0 0.4205,-0.55479 0.55917,-1.23286 0.13865,-0.67807 0.53279,-1.50742 0.87588,-1.843 0.34307,-0.33558 0.62376,-1.03777 0.62376,-1.56041 0,-0.52268 0.26906,-1.21348 0.59791,-1.53514 0.32886,-0.32166 0.71991,-1.06029 0.86904,-1.64141 0.1491,-0.58112 0.4071,-1.05658 0.57336,-1.05658 0.16623,0 0.52452,-0.72569 0.79621,-1.61265 0.27167,-0.88693 0.65724,-1.61262 0.85684,-1.61262 0.19958,0 0.48509,-0.54426 0.63444,-1.20946 0.14939,-0.6652 0.40771,-1.20946 0.57408,-1.20946 0.16637,0 0.55721,-0.63497 0.86855,-1.41105 0.31131,-0.77608 0.71687,-1.41104 0.90126,-1.41104 0.18438,0 0.33525,-0.27783 0.33525,-0.61738 0,-0.33957 0.26146,-0.71555 0.58105,-0.83549 0.3196,-0.11995 0.70532,-0.7024 0.8572,-1.29431 0.15189,-0.59191 0.54545,-1.34983 0.87455,-1.68424 1.38833,-1.41069 2.6323,-3.05864 2.63275,-3.48778 2.8e-4,-0.25344 0.27871,-0.56524 0.61875,-0.69285 0.34007,-0.12765 0.61826,-0.43733 0.61826,-0.68819 0,-0.25087 0.64917,-1.0911 1.44262,-1.86717 0.79342,-0.77609 1.44257,-1.57993 1.44257,-1.78633 0,-0.20642 0.6492,-0.95805 1.44264,-1.67031 0.79341,-0.71225 1.4426,-1.43859 1.4426,-1.61406 0,-0.17548 1.2056,-1.49248 2.67912,-2.92667 1.47351,-1.43421 2.6791,-2.7483 2.6791,-2.92019 0,-0.1719 0.3246,-0.59906 0.72132,-0.94928 0.39671,-0.35017 1.01938,-0.98014 1.38371,-1.39985 0.36432,-0.41972 1.0135,-1.05063 1.4426,-1.40203 0.4291,-0.35139 1.18551,-1.16778 1.68093,-1.8142 0.93644,-1.22186 3.45582,-3.93777 7.85791,-8.47081 1.41685,-1.45901 2.5761,-2.79686 2.5761,-2.97298 0,-0.17614 0.74188,-1.04594 1.64866,-1.93288 0.9068,-0.88696 1.64872,-1.77854 1.64872,-1.98132 0,-0.20281 0.54856,-0.81377 1.21904,-1.3577 0.67047,-0.54393 1.22714,-1.17038 1.23702,-1.39213 0.0163,-0.36654 1.1669,-1.87368 2.61607,-3.42681 0.31033,-0.33261 0.68132,-0.92223 0.82443,-1.31026 0.14306,-0.38805 0.43132,-0.70553 0.64056,-0.70553 0.20924,0 0.4968,-0.45355 0.63904,-1.00789 0.14224,-0.55434 0.41806,-1.00789 0.61293,-1.00789 0.1949,0 0.60086,-0.58961 0.90214,-1.31025 0.3013,-0.72064 0.74112,-1.53074 0.9774,-1.80022 1.06486,-1.21452 1.318,-1.60591 1.83436,-2.83606 0.30251,-0.72064 0.69286,-1.31028 0.86747,-1.31028 0.17461,0 0.43388,-0.45353 0.57611,-1.00788 0.14224,-0.55433 0.42343,-1.00788 0.62484,-1.00788 0.20145,0 0.60393,-0.90711 0.89442,-2.01579 0.29051,-1.10866 0.66385,-2.01576 0.82968,-2.01576 0.16584,0 0.42373,-0.54428 0.57311,-1.20947 0.14935,-0.66521 0.42902,-1.20946 0.62144,-1.20946 0.19242,0 0.57815,-0.99783 0.85717,-2.21737 0.27904,-1.21954 0.64857,-2.21734 0.82116,-2.21734 0.17262,0 0.44462,-0.58964 0.60445,-1.31026 0.15984,-0.72064 0.43607,-1.40158 0.61384,-1.51318 0.17778,-0.11158 0.56565,-1.38152 0.86191,-2.82208 0.29628,-1.44054 0.65888,-2.70988 0.80577,-2.82076 0.14686,-0.11087 0.4037,-1.29011 0.57074,-2.62051 0.16701,-1.33041 0.47,-2.52014 0.67328,-2.64387 0.20328,-0.12369 0.58725,-2.21002 0.85326,-4.63627 0.266,-2.42625 0.6814,-4.53945 0.9231,-4.696 0.68046,-0.44072 0.61626,-27.81398 -0.0656,-28.03672 -0.28336,-0.0925 -0.514,-0.65209 -0.51248,-1.2434 0.005,-1.79401 -0.94966,-7.32397 -1.26377,-7.32397 -0.16173,0 -0.41922,-0.81639 -0.5722,-1.81421 -0.15298,-0.99782 -0.43119,-1.8142 -0.61827,-1.8142 -0.32199,0 -0.44203,-0.39077 -1.08361,-3.52761 -0.14741,-0.72064 -0.4118,-1.31025 -0.58752,-1.31025 -0.17574,0 -0.4413,-0.63498 -0.59014,-1.41104 -0.14886,-0.77608 -0.44028,-1.41105 -0.64758,-1.41105 -0.20733,0 -0.59925,-0.72568 -0.87092,-1.61263 -0.27167,-0.88692 -0.63535,-1.6126 -0.80815,-1.6126 -0.17279,0 -0.43638,-0.54427 -0.58578,-1.20947 -0.14934,-0.66522 -0.44689,-1.20947 -0.6612,-1.20947 -0.21428,0 -0.5659,-0.45354 -0.78138,-1.0079 -0.21548,-0.55432 -0.58185,-1.00789 -0.81415,-1.00789 -0.2323,0 -0.42236,-0.27781 -0.42236,-0.61738 0,-0.33957 -0.26148,-0.71554 -0.58107,-0.83548 -0.31958,-0.11995 -0.69314,-0.65486 -0.83012,-1.18869 -0.13697,-0.53381 -0.80289,-1.52475 -1.47978,-2.20207 -0.67692,-0.67734 -1.23075,-1.38661 -1.23075,-1.57621 0,-0.18958 -1.11288,-1.42984 -2.47305,-2.75613 -1.36014,-1.32628 -2.47301,-2.51623 -2.47301,-2.6443 0,-0.36215 -1.91046,-2.29018 -2.26932,-2.29018 -0.176,0 -1.09044,-0.77102 -2.03211,-1.71341 -0.94168,-0.94237 -2.21383,-1.97081 -2.82706,-2.28548 -0.61325,-0.31463 -1.11497,-0.72283 -1.11497,-0.9071 0,-0.18426 -0.28404,-0.33503 -0.6312,-0.33503 -0.34716,0 -0.73795,-0.27211 -0.86845,-0.60472 -0.13047,-0.33261 -0.44924,-0.60497 -0.70836,-0.60523 -0.2591,-2.6e-4 -1.01001,-0.45383 -1.66868,-1.00788 -0.65869,-0.55409 -1.44696,-1.00741 -1.75175,-1.00741 -0.30478,0 -0.55414,-0.14756 -0.55414,-0.32791 0,-0.18035 -0.64918,-0.57706 -1.44261,-0.88155 -0.79342,-0.30452 -1.4426,-0.68678 -1.4426,-0.84955 0,-0.1627 -0.55642,-0.41539 -1.23651,-0.5615 -0.6801,-0.14611 -1.23652,-0.40359 -1.23652,-0.57223 0,-0.16864 -0.74191,-0.5461 -1.64868,-0.8388 -0.90679,-0.29274 -1.64869,-0.67349 -1.64869,-0.84615 0,-0.17265 -0.83466,-0.43636 -1.85479,-0.58599 -1.02011,-0.14962 -1.85477,-0.41022 -1.85477,-0.57911 0,-0.16889 -1.11288,-0.54854 -2.47302,-0.8437 -1.36018,-0.29514 -2.47303,-0.65726 -2.47303,-0.80468 0,-0.14744 -0.97029,-0.39395 -2.15617,-0.54783 -1.1859,-0.15388 -2.25742,-0.43998 -2.38115,-0.63582 -0.69323,-1.09711 -25.26477,-1.10034 -25.95787,-0.002 -0.12491,0.19772 -1.1974,0.48536 -2.38328,0.63923 -1.18592,0.15387 -2.15618,0.40874 -2.15618,0.5664 0,0.15765 -1.29833,0.51361 -2.8852,0.791 -1.58686,0.27737 -2.8852,0.6491 -2.8852,0.82601 0,0.1769 -0.64918,0.44078 -1.44261,0.58639 -0.79344,0.1456 -1.44261,0.40361 -1.44261,0.57337 0,0.16979 -0.92737,0.54116 -2.06086,0.82531 -1.13347,0.28415 -2.06085,0.67783 -2.06085,0.87485 0,0.19703 -0.4637,0.47204 -1.03043,0.61116 -0.56672,0.13915 -1.03044,0.38088 -1.03044,0.53719 0,0.1563 -0.64917,0.53333 -1.44259,0.83785 -0.79344,0.3045 -1.44262,0.70119 -1.44262,0.88157 0,0.18034 -0.26898,0.3279 -0.59777,0.3279 -0.32878,0 -0.74611,0.23742 -0.92739,0.52761 -0.18128,0.29019 -0.9324,0.76576 -1.66917,1.05679 -0.73675,0.29106 -1.33955,0.67636 -1.33955,0.85627 0,0.17989 -0.36204,0.43947 -0.80455,0.57683 -0.44249,0.13739 -1.7872,1.14575 -2.98824,2.24084 -1.20104,1.09506 -3.23958,2.94517 -4.53012,4.11132 -1.29051,1.16615 -2.35702,2.31432 -2.36999,2.55151 -0.013,0.23717 -0.48729,0.82559 -1.05401,1.30759 -0.56674,0.48199 -1.03044,1.10602 -1.03044,1.38676 0,0.28074 -0.37093,0.73701 -0.82434,1.01397 -0.45338,0.27697 -0.82434,0.6964 -0.82434,0.93208 0,0.23571 -0.23185,0.68142 -0.51521,0.99049 -1.30865,1.42735 -1.62317,1.89656 -2.02268,3.01753 -0.23536,0.66045 -0.58054,1.20079 -0.76705,1.20079 -0.18652,0 -0.45792,0.52912 -0.60314,1.1758 -0.14521,0.64668 -0.53091,1.27597 -0.85709,1.39837 -0.32619,0.12245 -0.59308,0.66891 -0.59308,1.21436 0,0.54546 -0.27819,1.26388 -0.61824,1.59649 -0.34006,0.3326 -0.61826,0.96755 -0.61826,1.41105 0,0.44347 -0.23619,1.04604 -0.52484,1.33903 -0.52411,0.53198 -1.53602,4.66158 -1.53602,6.2684 0,0.46707 -0.1761,0.9097 -0.39129,0.98361 -0.21523,0.0738 -0.52067,2.26606 -0.67878,4.87145 -0.15806,2.6054 -0.4457,4.73709 -0.63912,4.73709 -0.19342,0 -0.35167,0.3566 -0.35167,0.79241 0,0.43583 -0.59551,1.38827 -1.32335,2.11657 -1.22563,1.22637 -1.51985,1.32415 -3.98434,1.32415 -1.76241,0 -2.71897,-0.17018 -2.83272,-0.50393 -0.0945,-0.27718 -0.4345,-0.50395 -0.75563,-0.50395 -0.32117,0 -0.58393,-0.16846 -0.58393,-0.37436 0,-0.20591 -0.32459,-0.69327 -0.72129,-1.08306 -0.62812,-0.61714 -0.71872,-1.53584 -0.70141,-7.11076 0.0125,-3.99777 0.18212,-6.50556 0.45182,-6.67768 0.23757,-0.15159 0.55463,-1.1729 0.7046,-2.26954 0.14993,-1.09664 0.41647,-2.09446 0.59228,-2.21735 0.17581,-0.12289 0.56059,-1.4027 0.85508,-2.84397 0.29449,-1.44128 0.69977,-2.67906 0.90064,-2.75064 0.20089,-0.0715 0.48446,-0.75189 0.63022,-1.51183 0.14576,-0.75994 0.40574,-1.38171 0.57775,-1.38171 0.172,0 0.54641,-0.81639 0.83202,-1.81419 0.28563,-0.99781 0.6807,-1.8142 0.87793,-1.8142 0.19724,0 0.35858,-0.25918 0.35858,-0.57593 0,-0.31678 0.23972,-0.81568 0.53266,-1.1087 0.29293,-0.29299 0.77913,-1.12234 1.08041,-1.84298 0.30131,-0.72064 0.70726,-1.31025 0.90214,-1.31025 0.19485,0 0.47069,-0.45355 0.61293,-1.0079 0.14225,-0.55434 0.41198,-1.00788 0.59944,-1.00788 0.18744,0 0.57044,-0.62116 0.85111,-1.38032 0.28065,-0.75918 0.93874,-1.60462 1.46245,-1.87876 0.52367,-0.27413 1.07159,-0.8665 1.21757,-1.31638 0.14597,-0.44987 1.16917,-1.67898 2.27376,-2.73136 1.10462,-1.05238 2.00837,-2.0442 2.00837,-2.20404 0,-0.36027 3.13112,-3.39013 3.50342,-3.39013 0.14895,0 0.98219,-0.68032 1.85166,-1.51184 1.9341,-1.8496 3.80648,-3.31334 4.24759,-3.3206 0.18085,-0.002 0.73728,-0.42826 1.23652,-0.94505 0.49924,-0.5168 1.51051,-1.19606 2.24728,-1.50947 0.73676,-0.31339 1.33957,-0.70693 1.33957,-0.87454 0,-0.16761 0.28403,-0.30475 0.63118,-0.30475 0.34716,0 0.73363,-0.26105 0.85878,-0.58011 0.12516,-0.31904 0.75327,-0.69303 1.39579,-0.83106 0.6425,-0.13802 1.58277,-0.60268 2.08948,-1.03252 0.50672,-0.42987 1.17114,-0.78156 1.47649,-0.78156 0.30534,0 0.55518,-0.14378 0.55518,-0.31953 0,-0.17577 0.83467,-0.5379 1.8548,-0.80476 1.02013,-0.26689 1.85476,-0.65913 1.85476,-0.87168 0,-0.21254 0.64919,-0.50554 1.44261,-0.65114 0.79343,-0.1456 1.44259,-0.38964 1.44259,-0.54234 0,-0.15269 1.11288,-0.50246 2.47304,-0.77725 1.36017,-0.27479 2.47305,-0.66086 2.47305,-0.85796 0,-0.19709 1.02013,-0.48301 2.26693,-0.63537 1.24684,-0.15238 2.26695,-0.41098 2.26695,-0.57468 0,-0.35155 5.09685,-1.22209 7.15502,-1.22209 0.78754,0 1.50916,-0.22678 1.60362,-0.50395 0.22398,-0.65741 22.84521,-0.7378 23.30272,-0.0829 0.16179,0.23161 1.95959,0.651 3.99511,0.932 2.03553,0.28098 3.79756,0.65592 3.91564,0.83319 0.11807,0.17723 1.0957,0.4493 2.1725,0.60453 1.0768,0.15522 1.9578,0.42367 1.9578,0.59654 0,0.17286 1.02013,0.53757 2.26695,0.8105 1.24681,0.27294 2.26696,0.64444 2.26696,0.82562 0,0.18115 0.64917,0.44847 1.4426,0.59408 0.79344,0.14559 1.44259,0.42114 1.44259,0.61234 0,0.19119 0.92739,0.58012 2.06085,0.86426 1.13349,0.28414 2.06089,0.64933 2.06089,0.81152 0,0.16221 0.54092,0.41113 1.20206,0.55316 0.66115,0.14204 1.2978,0.50219 1.41476,0.80032 0.11698,0.29815 0.76614,0.66101 1.44259,0.80631 0.67649,0.14533 1.33237,0.52528 1.45754,0.84434 0.12517,0.31905 0.51161,0.58011 0.85878,0.58011 0.34716,0 0.63118,0.14754 0.63118,0.32789 0,0.18036 0.64145,0.57408 1.42547,0.87499 0.78398,0.30086 1.52006,0.78829 1.63572,1.08313 0.11569,0.29484 0.40162,0.53606 0.63543,0.53606 0.23381,0 0.79607,0.36283 1.24945,0.80631 0.45339,0.44348 1.07122,0.80632 1.37296,0.80632 0.30174,0 0.79514,0.45055 1.09642,1.00121 0.30131,0.55067 0.90675,1.11263 1.34547,1.24883 0.80501,0.2499 11.42944,10.43335 11.44265,10.96771 0.002,0.15836 0.4676,0.71518 1.03043,1.23737 0.56282,0.52218 1.0233,1.12045 1.0233,1.32951 0,0.20904 0.4199,0.77964 0.93316,1.26796 0.51323,0.4883 1.20844,1.43208 1.54497,2.0973 0.33649,0.66519 0.84398,1.35456 1.12771,1.53186 0.28374,0.17731 0.51587,0.58551 0.51587,0.9071 0,0.32158 0.15087,0.5847 0.33525,0.5847 0.18439,0 0.58996,0.63495 0.90128,1.41105 0.31131,0.77608 0.70216,1.41103 0.86852,1.41103 0.16637,0 0.42471,0.54428 0.57409,1.20947 0.14936,0.66522 0.43487,1.20946 0.63446,1.20946 0.19957,0 0.58516,0.7257 0.85684,1.61263 0.27168,0.88694 0.63533,1.61263 0.80814,1.61263 0.1728,0 0.43639,0.54425 0.58576,1.20945 0.14937,0.66523 0.4127,1.20947 0.58519,1.20947 0.17246,0 0.55831,0.99782 0.85741,2.21735 0.29912,1.21956 0.67906,2.21736 0.8443,2.21736 0.16527,0 0.42224,0.63498 0.57111,1.41105 0.14886,0.77609 0.42504,1.41104 0.61373,1.41104 0.18871,0 0.57848,1.49672 0.86612,3.32603 0.28766,1.82932 0.68519,3.42981 0.8834,3.55665 0.19821,0.12683 0.47744,1.48749 0.62053,3.02366 0.14307,1.53618 0.42369,2.89831 0.62362,3.02692 0.7143,0.45956 1.13919,14.84404 0.71319,24.1445 -0.22821,4.98212 -0.56988,9.15481 -0.75926,9.27257 -0.18936,0.11778 -0.47854,1.71085 -0.64258,3.54015 -0.16403,1.82934 -0.43451,3.32605 -0.60107,3.32605 -0.16659,0 -0.54813,1.54208 -0.84789,3.42683 -0.29974,1.88475 -0.67477,3.42683 -0.83333,3.42683 -0.1586,0 -0.40203,0.93875 -0.54097,2.08618 -0.13893,1.1474 -0.42468,2.19055 -0.635,2.31813 -0.21035,0.12759 -0.61033,1.36583 -0.88888,2.75167 -0.27854,1.38585 -0.65147,2.51974 -0.82875,2.51974 -0.1773,0 -0.44767,0.72567 -0.60087,1.61261 -0.15321,0.88694 -0.42923,1.61262 -0.61338,1.61262 -0.18417,0 -0.55732,0.90711 -0.82923,2.01579 -0.2719,1.10866 -0.64662,2.01577 -0.8327,2.01577 -0.18607,0 -0.46053,0.54426 -0.60989,1.20947 -0.14938,0.6652 -0.43488,1.20947 -0.63447,1.20947 -0.19959,0 -0.58516,0.72568 -0.85684,1.61262 -0.27168,0.88693 -0.63532,1.61261 -0.80812,1.61261 -0.17281,0 -0.4364,0.54426 -0.58577,1.20945 -0.14938,0.66522 -0.41985,1.20948 -0.60101,1.20948 -0.18119,0 -0.57592,0.58963 -0.87724,1.31026 -0.30131,0.72063 -0.78748,1.55 -1.08043,1.843 -0.29294,0.293 -0.53264,0.7919 -0.53264,1.10868 0,0.31676 -0.16296,0.57594 -0.36215,0.57594 -0.19918,0 -0.60527,0.58961 -0.9024,1.31025 -0.2971,0.72066 -0.92242,1.67458 -1.38955,2.11979 -0.46713,0.44528 -1.12726,1.35237 -1.46694,2.01581 -0.33966,0.66342 -0.84972,1.3513 -1.13346,1.52863 -0.28374,0.17729 -0.51588,0.58549 -0.51588,0.90709 0,0.32158 -0.15414,0.5847 -0.34253,0.5847 -0.18839,0 -0.60572,0.4989 -0.9274,1.10867 -0.32168,0.60976 -1.09492,1.55728 -1.71833,2.10555 -0.62341,0.54829 -1.13346,1.18819 -1.13346,1.42205 0,0.23386 -0.51009,0.87379 -1.13348,1.42206 -0.62342,0.5483 -1.38575,1.47582 -1.69405,2.06118 -0.30834,0.58536 -0.98347,1.28566 -1.50029,1.55621 -0.51683,0.27056 -1.19196,0.96356 -1.50028,1.54003 -0.30833,0.57648 -1.62707,2.08631 -2.93057,3.35519 -1.3035,1.26888 -2.37001,2.44002 -2.37001,2.60253 0,0.16248 -1.11285,1.36723 -2.47302,2.67716 -1.36017,1.30992 -2.47302,2.52991 -2.47302,2.71102 0,0.18114 -1.57672,1.93676 -3.50379,3.90138 -6.02425,6.14158 -6.80052,7.00282 -6.80052,7.54486 0,0.28998 -0.44327,0.75926 -0.98507,1.04288 -0.54178,0.2836 -1.23732,0.9946 -1.54565,1.57997 -0.3083,0.58535 -1.07063,1.5129 -1.69406,2.06117 -0.62338,0.54829 -1.13347,1.23429 -1.13347,1.52449 0,0.29018 -0.26146,0.62573 -0.58107,0.7457 -0.31956,0.11997 -0.69406,0.65851 -0.83218,1.19681 -0.13813,0.5383 -0.43768,0.97871 -0.66564,0.97871 -0.22801,0 -0.59084,0.45356 -0.8063,1.0079 -0.21547,0.55433 -0.56711,1.00789 -0.7814,1.00789 -0.21429,0 -0.50844,0.5291 -0.65365,1.17577 -0.14521,0.64668 -0.5134,1.26941 -0.81822,1.38383 -0.30482,0.11438 -0.67577,0.74938 -0.82433,1.41102 -0.1486,0.66169 -0.53706,1.30321 -0.86322,1.42566 -0.32621,0.12241 -0.59308,0.50041 -0.59308,0.83997 0,0.33958 -0.16834,0.61739 -0.37409,0.61739 -0.20572,0 -0.61176,0.90711 -0.90225,2.01577 -0.2905,1.10867 -0.65849,2.01577 -0.81776,2.01577 -0.15926,0 -0.40593,0.45356 -0.54819,1.00791 -0.14224,0.55434 -0.42207,1.00789 -0.62181,1.00789 -0.19979,0 -0.5857,0.90709 -0.85762,2.01576 -0.2719,1.10871 -0.65298,2.01577 -0.84678,2.01577 -0.1938,0 -0.47417,0.63498 -0.62301,1.41104 -0.14884,0.77613 -0.41137,1.41106 -0.58339,1.41106 -0.17197,0 -0.54641,0.81639 -0.83202,1.81418 -0.28563,0.99785 -0.67715,1.81417 -0.87007,1.81417 -0.19291,0 -0.46711,0.4536 -0.60936,1.00791 -0.14225,0.55441 -0.40926,1.00794 -0.59336,1.00794 -0.18412,0 -0.45972,0.55648 -0.61245,1.23671 -0.15272,0.68012 -0.53845,1.33454 -0.8571,1.45417 -0.31866,0.11964 -0.57938,0.47587 -0.57938,0.7917 0,0.31588 -0.26687,0.67448 -0.59308,0.79682 -0.32618,0.12244 -0.71464,0.764 -0.8632,1.42569 -0.14858,0.66169 -0.53089,1.3009 -0.84955,1.42048 -0.31866,0.11963 -0.57938,0.4333 -0.57938,0.69704 0,0.49234 -0.88816,1.76898 -2.16391,3.11042 -0.3967,0.41709 -0.72131,0.89955 -0.72131,1.07203 0,0.17247 -0.32458,0.60822 -0.72128,0.96845 -1.18853,1.07903 -2.57608,2.64493 -2.57608,2.90716 0,0.40838 -1.39989,1.62201 -2.54324,2.20492 -0.59157,0.30157 -1.30189,0.9619 -1.57847,1.46738 -0.27661,0.50556 -0.99107,1.16598 -1.58771,1.46755 -0.59665,0.30159 -1.45724,0.92217 -1.91246,1.37902 -0.45522,0.45685 -1.43046,1.06855 -2.16721,1.35917 -0.73677,0.29063 -1.33955,0.66814 -1.33955,0.83901 0,0.17069 -0.4637,0.42423 -1.03044,0.5634 -0.56675,0.13909 -1.03044,0.40747 -1.03044,0.59611 0,0.18862 -0.83465,0.57154 -1.85477,0.85099 -1.02012,0.27938 -1.85477,0.65144 -1.85477,0.82669 0,0.17525 -0.6028,0.44654 -1.33956,0.60288 -0.73677,0.15633 -1.43291,0.42656 -1.547,0.60056 -0.11409,0.17377 -1.41246,0.55317 -2.8852,0.84289 -1.47278,0.28987 -2.77672,0.66151 -2.89763,0.82602 -0.1209,0.16443 -1.74384,0.42343 -3.60649,0.5753 -1.86268,0.15196 -3.38668,0.43176 -3.38668,0.62154 0,0.18979 -2.78216,0.34521 -6.18256,0.34521 -3.40041,0 -6.1826,-0.16319 -6.1826,-0.36239 z"
       id="path3840"
       inkscape:connector-curvature="0"
       sodipodi:nodetypes="csscscccsccsscsssccccsssccccccssscscscscscscsscsccsccccssccsssssscssscccsscscccscccsscsccsscssscssssssscsssssssscsssssssccscssscccssssscsssccssccscccssssscssscscssccssssscsssccssscscscssssssscsssssssscscssssscsscsssscssscscssscssssscsssscscscsssssssscsscssssscscsscscsssssssscssccsssssssssssccsssscssscsccssscsscscssscssscsscscscsssssccssssscssscsssssccscssscsscscsssssscscsccsssccccsssscscscscscscsscscscscsccsssscsssscsccsscc" />
    <path
       sodipodi:type="arc"
       style="fill:none;stroke:#ff8800;stroke-width:41.50331782;stroke-linecap:butt;stroke-linejoin:miter;stroke-miterlimit:4;stroke-opacity:1;stroke-dasharray:none;marker-end:none"
       id="path2985-0"
       sodipodi:cx="217.5"
       sodipodi:cy="248.21428"
       sodipodi:rx="193.21428"
       sodipodi:ry="193.21428"
       d="m 210.75692,55.117701 c 106.6443,-3.7241 196.11556,79.709199 199.83966,186.353499 0.15693,4.49402 0.15693,8.99214 0,13.48616"
       transform="matrix(0.96377837,0,0,0.96377837,46.37822,557.13865)"
       sodipodi:start="4.6774824"
       sodipodi:end="6.3180919"
       sodipodi:open="true" />
    <path
       sodipodi:type="arc"
       style="fill:none;stroke:#ff8800;stroke-width:61.60579905;stroke-linecap:butt;stroke-miterlimit:4;stroke-opacity:1;stroke-dasharray:none"
       id="path2985-0-1"
       sodipodi:cx="217.5"
       sodipodi:cy="248.21428"
       sodipodi:rx="193.21428"
       sodipodi:ry="193.21428"
       d="m 210.75692,55.117701 c 106.6443,-3.7241 196.11556,79.709199 199.83966,186.353499 0.15693,4.49402 0.15693,8.99214 0,13.48616"
       transform="matrix(0.64928954,0,0,0.64928951,114.77953,635.19926)"
       sodipodi:start="4.6774824"
       sodipodi:end="6.3180919"
       sodipodi:open="true" />
  </g>
</svg>
