<?xml version="1.0" encoding="UTF-8" standalone="no"?>
<!-- Created with Inkscape (http://www.inkscape.org/) -->

<svg
   xmlns:dc="http://purl.org/dc/elements/1.1/"
   xmlns:cc="http://creativecommons.org/ns#"
   xmlns:rdf="http://www.w3.org/1999/02/22-rdf-syntax-ns#"
   xmlns:svg="http://www.w3.org/2000/svg"
   xmlns="http://www.w3.org/2000/svg"
   xmlns:sodipodi="http://sodipodi.sourceforge.net/DTD/sodipodi-0.dtd"
   xmlns:inkscape="http://www.inkscape.org/namespaces/inkscape"
   width="512"
   height="512"
   id="svg2"
   version="1.1"
   inkscape:version="0.48.4 r9939"
   sodipodi:docname="logo_trimmed.svg"
   inkscape:export-filename="/ExtData/AndroidStudioProjects/Podlisten/app/src/main/res/drawable/logo.png"
   inkscape:export-xdpi="14.0625"
   inkscape:export-ydpi="14.0625">
  <defs
     id="defs4" />
  <sodipodi:namedview
     id="base"
     pagecolor="#ffffff"
     bordercolor="#666666"
     borderopacity="1.0"
     inkscape:pageopacity="0.0"
     inkscape:pageshadow="2"
     inkscape:zoom="1.4142136"
     inkscape:cx="285.52441"
     inkscape:cy="260.35214"
     inkscape:document-units="px"
     inkscape:current-layer="layer1"
     showgrid="false"
     showguides="false"
     inkscape:snap-global="false"
     inkscape:window-width="1920"
     inkscape:window-height="1056"
     inkscape:window-x="0"
     inkscape:window-y="24"
     inkscape:window-maximized="1">
    <inkscape:grid
       type="xygrid"
       id="grid3836"
       empspacing="5"
       visible="true"
       enabled="true"
       snapvisiblegridlinesonly="true" />
  </sodipodi:namedview>
  <metadata
     id="metadata7">
    <rdf:RDF>
      <cc:Work
         rdf:about="">
        <dc:format>image/svg+xml</dc:format>
        <dc:type
           rdf:resource="http://purl.org/dc/dcmitype/StillImage" />
        <dc:title />
      </cc:Work>
    </rdf:RDF>
  </metadata>
  <g
     inkscape:label="Layer 1"
     inkscape:groupmode="layer"
     id="layer1"
     transform="translate(0,-540.36218)">
    <path
       style="fill:#b3b3b3;fill-opacity:1;stroke:#b3b3b3;stroke-width:8;stroke-linecap:round;stroke-linejoin:round;stroke-miterlimit:4;stroke-opacity:1;stroke-dasharray:none"
       d="m 131.03391,943.5846 c -0.88826,-0.12143 -1.61501,-0.40065 -1.61501,-0.62053 0,-0.21986 -0.75389,-0.53764 -1.6753,-0.70611 -0.92146,-0.16849 -2.18553,-0.73767 -2.80911,-1.26482 -0.62355,-0.52714 -1.31274,-0.95847 -1.53152,-0.95847 -0.65029,0 -4.84399,-4.34295 -5.17483,-5.35897 -0.16794,-0.51572 -0.51388,-0.93769 -0.76878,-0.93769 -0.25487,0 -0.46343,-0.29359 -0.46343,-0.65243 0,-0.35883 -0.42365,-1.12855 -0.9415,-1.71051 -0.5178,-0.58194 -1.09737,-1.86806 -1.28788,-2.85807 -0.19053,-0.98999 -0.60543,-1.95593 -0.92198,-2.14654 -0.79759,-0.48029 -0.80633,-15.29113 -0.007,-15.778 0.31142,-0.19024 0.84323,-1.25033 1.18177,-2.35579 0.3638,-1.18784 1.08211,-2.2533 1.75629,-2.60497 0.62736,-0.32727 1.2774,-1.12602 1.44452,-1.775 0.18378,-0.71385 0.85767,-1.36816 1.70584,-1.65637 0.7711,-0.26201 1.68639,-0.99421 2.03389,-1.62718 0.34753,-0.63294 1.12096,-1.27045 1.71883,-1.4167 0.59783,-0.14626 1.60963,-0.70779 2.24848,-1.24783 0.63883,-0.54007 1.46271,-0.98192 1.83088,-0.98192 0.36809,0 0.6693,-0.20385 0.6693,-0.45298 0,-0.24918 0.76562,-0.7229 1.70133,-1.0527 0.93576,-0.32984 1.9798,-1.10679 2.32015,-1.72661 0.3403,-0.61983 0.92033,-1.12696 1.28893,-1.12696 0.64539,0 2.96891,-2.15897 4.72852,-4.39374 0.46526,-0.59084 0.99647,-1.75113 1.1805,-2.57841 0.18403,-0.82727 0.58601,-1.65975 0.89331,-1.84995 0.81371,-0.50368 0.74958,-10.6517 -0.0691,-10.91766 -0.33803,-0.10981 -0.61461,-0.46916 -0.61461,-0.79849 0,-0.32938 -0.55902,-1.07264 -1.24227,-1.65172 -0.68326,-0.57907 -1.24232,-1.32803 -1.24232,-1.66435 0,-0.33635 -0.72673,-0.92377 -1.61497,-1.30542 -0.88824,-0.38165 -1.88675,-0.92528 -2.2189,-1.20805 -1.67679,-1.42759 -2.15863,-1.69479 -4.05452,-2.24844 -1.12749,-0.32926 -2.04998,-0.75849 -2.04998,-0.95382 0,-0.19539 -0.55901,-0.49198 -1.24229,-0.65913 -0.68327,-0.16714 -1.24232,-0.4894 -1.24232,-0.71607 0,-0.22671 -1.00625,-0.68683 -2.23612,-1.02246 -1.22989,-0.33564 -2.23616,-0.79986 -2.23616,-1.03166 0,-0.23176 -0.34243,-0.42142 -0.76096,-0.42142 -0.41852,0 -0.88969,-0.32693 -1.047,-0.72653 -0.15733,-0.39959 -0.57408,-0.72656 -0.9261,-0.72656 -0.61894,0 -1.56528,-0.85171 -3.76713,-3.39049 -0.94731,-1.09225 -1.03139,-1.67645 -0.85839,-5.96238 0.1073,-2.6573 0.42776,-4.89883 0.7272,-5.08577 0.29446,-0.18387 0.68787,-0.81074 0.87421,-1.39308 0.42962,-1.34247 4.41048,-5.30533 5.7438,-5.71782 0.55453,-0.17153 1.00821,-0.48874 1.00821,-0.70486 0,-0.21613 0.72673,-0.67906 1.61499,-1.02874 0.88826,-0.34965 1.79383,-0.92098 2.01239,-1.26965 0.21856,-0.34863 0.72168,-0.63388 1.11806,-0.63388 0.39636,0 0.72068,-0.22478 0.72068,-0.49956 0,-0.27475 0.39133,-0.64081 0.86963,-0.81347 1.15145,-0.41565 6.58416,-5.67506 6.58416,-6.37419 0,-0.30079 0.22841,-0.54691 0.50758,-0.54691 0.27916,0 0.77969,-0.59939 1.11225,-1.33198 0.33263,-0.73258 0.88683,-1.61999 1.23166,-1.97204 0.34484,-0.352 0.62697,-0.95142 0.62697,-1.332 0,-0.38055 0.20294,-0.69194 0.451,-0.69194 0.24803,0 0.73752,-1.08979 1.08778,-2.42177 0.35023,-1.33199 0.79845,-2.42178 0.99608,-2.42178 0.19762,0 0.51043,-0.87188 0.6951,-1.93747 0.1847,-1.06556 0.48878,-1.93743 0.67573,-1.93743 0.18697,0 0.62496,-1.46466 0.97337,-3.25479 0.34839,-1.79016 0.81203,-3.37038 1.0303,-3.5116 0.2183,-0.14127 0.53536,-1.11103 0.70459,-2.15505 0.16922,-1.04403 0.5123,-2.02488 0.76239,-2.17963 0.25008,-0.15475 0.7408,-1.53466 1.09052,-3.06643 0.3497,-1.53179 0.80608,-2.78507 1.0142,-2.78507 0.2081,0 0.52569,-0.65389 0.70578,-1.45309 0.18009,-0.79919 0.49099,-1.45308 0.69094,-1.45308 0.19989,0 0.65001,-1.08979 1.00024,-2.42178 0.35021,-1.33202 0.81549,-2.42181 1.0339,-2.42181 0.21842,0 0.53745,-0.54488 0.70896,-1.21089 0.17147,-0.666 0.5138,-1.2109 0.7607,-1.2109 0.24691,0 0.70724,-0.76288 1.02291,-1.69527 0.3157,-0.9324 0.78026,-1.69525 1.03237,-1.69525 0.2521,0 0.4584,-0.32907 0.4584,-0.73127 0,-0.40222 0.44723,-1.10455 0.99382,-1.56072 0.54662,-0.4562 0.99385,-1.0595 0.99385,-1.3407 0,-0.28121 0.39133,-0.85519 0.86959,-1.27559 0.47828,-0.42035 1.31685,-1.38294 1.86347,-2.13906 0.54661,-0.7561 1.4171,-1.71386 1.93443,-2.12839 0.51734,-0.4145 1.29999,-1.16178 1.73924,-1.66066 1.54047,-1.74965 2.73067,-2.7257 3.32374,-2.7257 0.32919,0 0.72723,-0.32691 0.88455,-0.72652 0.15729,-0.39959 0.62846,-0.72656 1.047,-0.72656 0.41854,0 0.76094,-0.20382 0.76094,-0.45297 0,-0.24916 0.78267,-0.72889 1.73924,-1.06603 0.95655,-0.33716 1.73923,-0.76987 1.73923,-0.96158 0,-0.19173 0.67085,-0.49218 1.49076,-0.66771 0.81991,-0.17555 1.49076,-0.49394 1.49076,-0.70754 0,-0.45927 3.88372,-1.4721 5.64474,-1.4721 0.67613,0 1.30811,-0.23046 1.40444,-0.51213 0.10163,-0.29704 2.57123,-0.63235 5.88024,-0.79839 4.56076,-0.91273 8.39566,-0.23068 12.37448,0.012 2.84832,0.16502 5.30804,0.47642 5.46614,0.69196 0.15808,0.21554 1.61388,0.65511 3.23513,0.97684 1.62121,0.32168 3.07472,0.77868 3.22996,1.01553 0.15527,0.23681 1.00904,0.58429 1.89726,0.77214 0.88824,0.18783 1.615,0.50148 1.615,0.69696 0,0.19552 0.78265,0.65481 1.73922,1.02063 0.95657,0.36586 1.73919,0.84245 1.73919,1.05913 0,0.21667 0.32437,0.39394 0.7207,0.39394 0.39639,0 0.89952,0.27283 1.11807,0.60625 0.21855,0.33345 0.98771,0.90235 1.70921,1.26423 0.72154,0.36189 1.58468,1.1549 1.91818,1.76224 0.33345,0.60736 1.11611,1.37022 1.7392,1.69526 0.62308,0.32503 1.40575,1.0879 1.73922,1.69526 0.33348,0.60735 1.12366,1.37416 1.75604,1.70402 0.63231,0.32987 1.27249,1.07654 1.42253,1.65926 0.15006,0.58271 0.72611,1.56895 1.28018,2.19164 0.55403,0.62267 1.00737,1.42574 1.00737,1.78458 0,0.35884 0.21462,0.65244 0.47696,0.65244 0.26233,0 0.74497,0.87183 1.07247,1.93741 0.32757,1.06558 0.75886,1.93743 0.95849,1.93743 0.19966,0 0.52021,0.81688 0.71236,1.81527 0.19215,0.99836 0.54721,1.93441 0.78901,2.08005 0.2418,0.14568 0.71373,2.38027 1.04876,4.96583 0.33502,2.5855 0.78751,4.70094 1.00554,4.70094 0.21798,0 0.534,2.74735 0.534,6.88551 0.47633,1.53148 0.23216,2.96064 -0.53248,6.31658 -1.47117,-3.61986 -1.7229,-4.36859 -1.74569,-5.97738 -0.22646,-0.14869 -1.43107,-2.0417 -1.75168,-4.29081 -0.32056,-2.24914 -0.77842,-4.21078 -1.01751,-4.35926 -0.23904,-0.14844 -0.59351,-1.19624 -0.78765,-2.32843 -0.19414,-1.13218 -0.51467,-2.05852 -0.71228,-2.05852 -0.19763,0 -0.64585,-1.08982 -0.99609,-2.4218 -0.35022,-1.332 -0.83545,-2.4218 -1.07831,-2.4218 -0.24283,0 -0.58184,-0.54491 -0.75331,-1.21091 -0.1715,-0.66598 -0.48406,-1.21089 -0.69458,-1.21089 -0.21052,0 -0.65396,-0.63822 -0.98546,-1.41828 -0.3315,-0.78006 -0.91764,-1.53607 -1.30259,-1.68006 -0.38493,-0.14397 -0.69987,-0.4913 -0.69987,-0.77188 0,-0.66336 -5.0033,-5.54022 -6.1077,-5.95329 -0.46707,-0.17469 -0.84919,-0.52834 -0.84919,-0.78584 0,-0.25752 -0.78265,-0.74406 -1.73921,-1.08124 -0.95659,-0.33714 -1.7392,-0.76354 -1.7392,-0.94755 0,-0.18401 -0.61273,-0.48445 -1.36157,-0.66763 -0.74886,-0.18321 -1.49272,-0.53999 -1.65307,-0.79284 -0.16031,-0.25287 -1.72785,-0.71389 -3.48339,-1.0246 -1.75556,-0.31063 -3.3233,-0.75046 -3.48389,-0.9773 -0.38583,-0.54502 -13.4183,-0.57831 -13.81286,-0.0352 -0.16824,0.2315 -1.63231,0.68415 -3.25354,1.00588 -1.62121,0.32171 -3.07695,0.7888 -3.23495,1.03795 -0.158,0.2492 -0.89994,0.60296 -1.64883,0.78615 -0.74884,0.1832 -1.36154,0.51332 -1.36154,0.7336 0,0.22027 -0.7656,0.67034 -1.70132,1.00017 -0.93575,0.32981 -1.97979,1.10677 -2.32012,1.72659 -0.34032,0.6198 -0.91153,1.12694 -1.2694,1.12694 -0.8473,0 -6.1383,5.15726 -6.1383,5.98319 0,0.34879 -0.542,0.91689 -1.20443,1.26245 -0.66241,0.34555 -1.32717,1.10509 -1.4772,1.68779 -0.15006,0.58273 -0.72616,1.56896 -1.28019,2.19165 -0.55405,0.62268 -1.00739,1.42573 -1.00739,1.78457 0,0.35881 -0.2146,0.65243 -0.47695,0.65243 -0.26234,0 -0.74496,0.87183 -1.07251,1.93741 -0.32753,1.06563 -0.75949,1.93747 -0.9599,1.93747 -0.20044,0 -0.5115,0.57123 -0.69125,1.26941 -0.17979,0.69816 -0.6242,1.55922 -0.98763,1.91343 -0.36336,0.35423 -0.81326,1.63564 -0.99973,2.84765 -0.18647,1.212 -0.52406,2.20362 -0.75022,2.20362 -0.22612,0 -0.56834,0.81685 -0.76052,1.81524 -0.19217,0.99837 -0.54696,1.93427 -0.78846,2.07973 -0.24149,0.14549 -0.70058,1.99868 -1.02018,4.11816 -0.31962,2.11952 -0.76696,3.97226 -0.99408,4.1172 -0.22714,0.14497 -0.56459,3.35989 -0.74994,7.1443 -0.18535,3.78444 -0.52614,6.88077 -0.75738,6.88077 -0.23122,0 -0.42037,1.19879 -0.42037,2.66399 0,1.46517 0.18882,2.66395 0.41959,2.66395 0.23081,0 0.56456,3.10543 0.74171,6.90094 0.18275,3.91614 0.53857,6.97127 0.82264,7.06355 0.27535,0.0894 0.50063,0.79436 0.50063,1.56639 0,2.11563 1.14675,8.20275 1.54529,8.20275 0.19203,0 0.50291,1.08978 0.69087,2.42178 0.18793,1.33199 0.5138,2.42182 0.72409,2.42182 0.21033,0 0.66714,1.30776 1.01513,2.90614 0.34801,1.5984 0.80611,2.90617 1.01808,2.90617 0.2119,0 0.54414,0.92634 0.73828,2.05851 0.19414,1.13222 0.53881,2.1741 0.76588,2.31533 0.22708,0.14123 0.6979,1.72146 1.04634,3.5116 0.34838,1.79015 0.78996,3.25482 0.98127,3.25482 0.19128,0 0.50148,1.19881 0.6893,2.66397 0.18781,1.46521 0.50348,2.66401 0.70149,2.66401 0.7176,0 1.51315,9.33984 1.51377,17.77188 6.3e-4,8.31725 -0.75375,16.61761 -1.51027,16.61761 -0.20085,0 -0.51609,0.98085 -0.70053,2.17966 -0.18442,1.19877 -0.52456,2.17958 -0.75587,2.17958 -0.2313,0 -0.70709,1.0898 -1.05731,2.42178 -0.35026,1.33198 -0.81814,2.42182 -1.03981,2.42182 -0.22164,0 -0.40297,0.33379 -0.40297,0.74175 0,0.40795 -0.31521,0.85963 -0.70052,1.00376 -0.38531,0.14411 -0.84853,0.84565 -1.02947,1.55897 -0.18092,0.71332 -0.98374,1.88403 -1.78404,2.6016 -0.80033,0.71758 -1.45516,1.50151 -1.45516,1.74206 0,0.70073 -3.35755,3.87381 -4.45981,4.21482 -0.55346,0.17121 -1.00629,0.51458 -1.00629,0.76302 0,0.24844 -0.34244,0.45171 -0.76098,0.45171 -0.41853,0 -0.88006,0.30251 -1.02562,0.67228 -0.14557,0.36976 -1.31253,0.953 -2.59323,1.29616 -1.28072,0.34311 -2.48608,0.85469 -2.67855,1.13683 -0.35724,0.52361 -13.04329,0.8724 -16.1726,0.44463 l 0,0 z"
       id="path3838"
       inkscape:connector-curvature="0"
       sodipodi:nodetypes="csssssssccccsccssscssscscsscssssssscsssscscscscsccsscssccsssscsscscsscsssssssscscscsscsssscsssccsccsscsscsccsccsssssscsscccscsscscsscssssscccscsccsscsscccsscsccssscscssssscsscsssssssssssssssscssscssscsccc" />
    <path
       style="fill:#b3b3b3;fill-opacity:1;stroke:#b3b3b3;stroke-width:16.99999809;stroke-miterlimit:4;stroke-opacity:1;stroke-dasharray:none"
       d="m 127.43124,1022.425 c 0,-0.2394 -1.56528,-0.5885 -3.47843,-0.7757 -1.91314,-0.1873 -3.47845,-0.5017 -3.47845,-0.6986 0,-0.1969 -1.22988,-0.6264 -2.73304,-0.9543 -1.50319,-0.3278 -2.73307,-0.7743 -2.73307,-0.992 0,-0.2176 -0.76105,-0.5348 -1.69123,-0.705 -0.93019,-0.17 -1.80953,-0.6096 -1.95411,-0.9769 -0.14457,-0.3671 -0.94879,-0.8146 -1.78718,-0.9941 -0.83841,-0.1794 -1.52435,-0.527 -1.52435,-0.7721 0,-0.2453 -0.27951,-0.4497 -0.62117,-0.4543 -0.3416,-0.011 -1.14773,-0.5496 -1.79135,-1.2108 -0.64362,-0.6615 -1.35508,-1.2026 -1.58103,-1.2026 -0.56184,0 -7.932518,-7.2457 -7.932518,-7.7981 0,-0.2433 -0.55901,-0.9162 -1.24231,-1.4954 -0.68326,-0.579 -1.24229,-1.3404 -1.24229,-1.692 0,-0.3516 -0.22362,-0.6392 -0.49694,-0.6392 -0.27328,0 -0.49689,-0.3337 -0.49689,-0.7416 0,-0.40802 -0.32176,-0.86215 -0.71502,-1.00934 -0.39325,-0.14699 -0.86156,-0.91779 -1.04071,-1.71275 -0.17913,-0.79497 -0.62632,-1.5578 -0.99383,-1.69517 -0.36748,-0.13749 -0.81139,-0.88564 -0.98644,-1.66261 -0.17509,-0.77696 -0.48189,-1.41257 -0.68183,-1.41257 -0.19994,0 -0.65003,-1.08984 -1.00028,-2.42188 -0.35022,-1.33195 -0.81482,-2.42169 -1.03248,-2.42169 -0.21762,0 -0.55288,-0.81695 -0.74508,-1.81528 -0.19213,-0.99839 -0.54223,-1.93147 -0.77796,-2.07349 -0.23572,-0.14203 -0.69988,-1.88617 -1.03143,-3.87585 -0.33153,-1.98991 -0.78417,-3.7368 -1.00581,-3.88216 -0.22165,-0.1453 -0.55347,-2.21597 -0.73734,-4.6014 -0.4587,-2.61712 -0.52758,-4.29898 -0.17544,-6.6378 0.51601,-1.45323 0.4277,-1.96169 1.24229,-2.71483 0.67855,-0.62735 1.23372,-1.32733 1.23372,-1.5555 0,-0.86604 3.84606,-1.45326 6.17965,-0.94351 2.64434,0.57763 4.16629,1.8721 4.58175,3.89695 0.16228,0.79089 0.49071,1.43795 0.72986,1.43795 0.23915,0 0.43453,0.70837 0.43416,1.57419 -6.7e-4,2.56455 1.1137,9.56606 1.52304,9.56606 0.20785,0 0.52904,0.87181 0.71372,1.93737 0.18473,1.06568 0.50421,1.93749 0.71001,1.93749 0.2058,0 0.64939,1.19884 0.985818,2.664 0.33636,1.46516 0.80141,2.66391 1.0334,2.66391 0.23199,0 0.56913,0.65398 0.74923,1.45314 0.18006,0.79918 0.48836,1.45306 0.68504,1.45306 0.1967,0 0.64062,0.76292 0.98652,1.69535 0.34591,0.93232 0.83805,1.69518 1.09365,1.69518 0.25563,0 0.46478,0.31616 0.46478,0.70242 0,0.38639 0.27987,0.87681 0.62195,1.08976 0.34208,0.21314 0.92571,0.96284 1.29699,1.66612 0.37128,0.7033 1.18484,1.54465 1.80794,1.8697 0.62311,0.32497 1.41891,1.1119 1.76852,1.74852 0.34955,0.63666 0.79792,1.15766 0.99635,1.15766 0.19844,0 0.8874,0.5412 1.53103,1.2025 0.6436,0.6614 1.42582,1.2063 1.73819,1.2109 0.3124,0.011 0.68862,0.3147 0.83603,0.6891 0.14744,0.3746 0.95403,0.8278 1.79241,1.0073 0.83837,0.1795 1.52431,0.5097 1.52431,0.7337 0,0.2241 0.72677,0.5611 1.615,0.7489 0.88823,0.1879 1.74326,0.5373 1.90008,0.7766 0.34929,0.533 5.40761,1.374 8.28676,1.3779 1.16155,0 2.11192,0.2207 2.11192,0.4871 0,0.2664 1.00626,0.4844 2.23616,0.4844 1.22987,0 2.23611,-0.218 2.23611,-0.4844 0,-0.2664 1.22074,-0.4844 2.71276,-0.4844 3.60871,0 10.20715,-0.9774 10.20715,-1.5119 0,-0.234 0.54306,-0.4255 1.20682,-0.4255 0.66373,0 1.54219,-0.3269 1.95218,-0.7265 0.40997,-0.3997 1.025,-0.7265 1.36674,-0.7265 1.0421,0 3.92187,-1.1384 3.92187,-1.5505 0,-0.2128 0.34247,-0.3869 0.76099,-0.3869 0.41856,0 0.88197,-0.3073 1.0298,-0.6829 0.14786,-0.3755 0.80717,-0.8146 1.46515,-0.9754 0.65796,-0.161 1.87938,-0.94368 2.7142,-1.73906 0.83489,-0.79548 1.69738,-1.44628 1.91669,-1.44628 0.57942,0 5.53,-4.78527 5.53,-5.34533 0,-0.26039 0.55906,-0.94712 1.24233,-1.5263 0.68327,-0.57901 1.24229,-1.26096 1.24229,-1.51543 0,-0.25437 0.55,-0.95936 1.2222,-1.56651 0.67221,-0.60733 1.37184,-1.68524 1.5547,-2.39548 0.18286,-0.71014 0.63914,-1.40596 1.01392,-1.54611 0.37481,-0.14023 0.68146,-0.5477 0.68146,-0.90561 0,-0.35781 0.30376,-0.82489 0.6751,-1.03795 0.37127,-0.21304 0.96408,-1.25312 1.31729,-2.31141 0.35323,-1.05829 0.94387,-2.21811 1.31261,-2.57746 0.36867,-0.35937 0.67038,-0.96479 0.67038,-1.34533 0,-0.38063 0.19453,-0.69199 0.43232,-0.69199 0.23778,0 0.71405,-0.98082 1.05842,-2.17958 0.34433,-1.19882 0.79268,-2.17964 0.9963,-2.17964 0.20361,0 0.50695,-0.66653 0.67414,-1.48118 0.16715,-0.81465 0.64233,-1.81104 1.05597,-2.21422 0.41362,-0.40317 0.75202,-1.24679 0.75202,-1.8747 0,-0.62796 0.32438,-1.45791 0.72084,-1.84436 0.39648,-0.38645 0.86793,-1.27385 1.04773,-1.97202 0.17975,-0.69817 0.4908,-1.2694 0.69125,-1.2694 0.2004,0 0.63236,-0.87185 0.95991,-1.93746 0.32753,-1.06558 0.79238,-1.93745 1.03302,-1.93745 0.24061,0 0.58483,-0.65388 0.76489,-1.45307 0.1801,-0.79918 0.49153,-1.45307 0.69211,-1.45307 0.20058,0 0.67179,-0.76286 1.04715,-1.69526 0.37531,-0.9324 0.86426,-1.69525 1.08656,-1.69525 0.22229,0 0.40418,-0.33379 0.40418,-0.74173 0,-0.40798 0.31522,-0.85969 0.70052,-1.00379 0.38532,-0.14411 0.85034,-0.84387 1.03345,-1.555 0.18312,-0.71114 0.6576,-1.62172 1.05437,-2.02348 1.67378,-1.69483 3.17354,-3.67472 3.17408,-4.1903 3.4e-4,-0.30449 0.33601,-0.67909 0.74597,-0.8324 0.40999,-0.15336 0.74538,-0.52542 0.74538,-0.82681 0,-0.3014 0.78264,-1.31087 1.73924,-2.24325 0.95655,-0.93241 1.73917,-1.89816 1.73917,-2.14613 0,-0.248 0.78268,-1.15103 1.73927,-2.00676 0.95655,-0.85571 1.73922,-1.72834 1.73922,-1.93916 0,-0.21082 1.45348,-1.79309 3.22997,-3.51615 1.77649,-1.7231 3.22996,-3.30188 3.22996,-3.50839 0,-0.20652 0.39134,-0.71972 0.86963,-1.14048 0.47828,-0.4207 1.22897,-1.17756 1.66821,-1.68181 0.43923,-0.50426 1.22189,-1.26224 1.73922,-1.68444 0.51732,-0.42216 1.42927,-1.40299 2.02655,-2.17961 1.12898,-1.46797 4.16637,-4.73091 9.47359,-10.177 1.70816,-1.75289 3.10577,-3.36022 3.10577,-3.57181 0,-0.21162 0.89443,-1.25661 1.98765,-2.3222 1.09325,-1.06561 1.98771,-2.13677 1.98771,-2.38039 0,-0.24366 0.66135,-0.97768 1.46969,-1.63117 0.80832,-0.6535 1.47945,-1.40613 1.49136,-1.67254 0.0197,-0.44037 1.40684,-2.25108 3.15397,-4.11704 0.37414,-0.3996 0.82141,-1.10798 0.99394,-1.57417 0.17248,-0.46622 0.52001,-0.84765 0.77227,-0.84765 0.25226,0 0.59894,-0.5449 0.77043,-1.2109 0.17149,-0.66599 0.50402,-1.2109 0.73895,-1.2109 0.23498,0 0.72441,-0.70837 1.08763,-1.57416 0.36325,-0.86579 0.89352,-1.83906 1.17838,-2.16281 1.2838,-1.45916 1.58899,-1.92939 2.21152,-3.40731 0.36471,-0.86579 0.83532,-1.5742 1.04583,-1.5742 0.21051,0 0.52309,-0.54488 0.69456,-1.21088 0.17149,-0.66599 0.51049,-1.21089 0.75332,-1.21089 0.24287,0 0.7281,-1.08983 1.07832,-2.42182 0.35024,-1.33197 0.80035,-2.42177 1.00028,-2.42177 0.19994,0 0.51085,-0.65391 0.69095,-1.45308 0.18005,-0.7992 0.51723,-1.45307 0.74921,-1.45307 0.23198,0 0.69702,-1.19883 1.03341,-2.664 0.33642,-1.46518 0.78193,-2.66396 0.99,-2.66396 0.20811,0 0.53604,-0.7084 0.72873,-1.57417 0.19271,-0.86579 0.52573,-1.6839 0.74005,-1.81797 0.21434,-0.13406 0.68196,-1.65979 1.03913,-3.39051 0.3572,-1.73069 0.79435,-3.2557 0.97146,-3.38891 0.17705,-0.1332 0.4867,-1.54997 0.68809,-3.14834 0.20134,-1.59838 0.56663,-3.02775 0.81171,-3.1764 0.24507,-0.1486 0.70799,-2.65517 1.0287,-5.57011 0.32069,-2.91495 0.8215,-5.4538 1.11289,-5.64188 0.82037,-0.52949 0.74297,-33.41629 -0.0791,-33.68389 -0.34162,-0.11114 -0.61969,-0.78344 -0.61785,-1.49385 0.006,-2.15537 -1.14492,-8.79918 -1.52362,-8.79918 -0.19498,0 -0.50541,-0.98083 -0.68985,-2.17963 -0.18443,-1.1988 -0.51984,-2.17961 -0.74539,-2.17961 -0.38821,0 -0.53293,-0.46948 -1.30642,-4.23815 -0.17772,-0.86579 -0.49647,-1.57416 -0.70832,-1.57416 -0.21187,0 -0.53204,-0.76288 -0.71148,-1.69525 -0.17947,-0.9324 -0.53081,-1.69526 -0.78073,-1.69526 -0.24996,0 -0.72246,-0.87186 -1.04999,-1.93746 -0.32753,-1.06556 -0.76598,-1.93741 -0.97431,-1.93741 -0.20832,0 -0.5261,-0.65389 -0.70622,-1.45308 -0.18005,-0.7992 -0.53878,-1.45308 -0.79715,-1.45308 -0.25835,0 -0.68227,-0.54489 -0.94205,-1.21092 -0.25979,-0.66597 -0.70149,-1.2109 -0.98155,-1.2109 -0.28006,0 -0.5092,-0.33376 -0.5092,-0.74173 0,-0.40797 -0.31524,-0.85966 -0.70054,-1.00376 -0.38529,-0.14411 -0.83566,-0.78676 -1.00081,-1.42812 -0.16513,-0.64133 -0.96797,-1.83186 -1.78403,-2.6456 -0.8161,-0.81379 -1.48382,-1.66592 -1.48382,-1.89371 0,-0.22776 -1.3417,-1.71783 -2.98153,-3.31126 -1.6398,-1.59342 -2.98148,-3.02306 -2.98148,-3.17693 0,-0.43509 -2.30329,-2.75146 -2.73593,-2.75146 -0.21219,0 -1.31465,-0.92632 -2.44993,-2.05853 -1.1353,-1.13218 -2.66902,-2.36778 -3.40834,-2.74583 -0.73934,-0.378 -1.34422,-0.86842 -1.34422,-1.0898 0,-0.22138 -0.34244,-0.40252 -0.76098,-0.40252 -0.41854,0 -0.88968,-0.32691 -1.04702,-0.72652 -0.15729,-0.3996 -0.5416,-0.72682 -0.854,-0.72713 -0.31237,-3.1e-4 -1.21768,-0.54524 -2.01178,-1.21089 -0.79413,-0.66569 -1.74448,-1.21032 -2.11194,-1.21032 -0.36744,0 -0.66807,-0.17728 -0.66807,-0.39396 0,-0.21667 -0.78266,-0.69329 -1.73923,-1.05912 -0.95655,-0.36586 -1.73921,-0.82511 -1.73921,-1.02067 0,-0.19547 -0.67082,-0.49905 -1.49076,-0.67459 -0.81993,-0.17554 -1.49076,-0.48488 -1.49076,-0.68749 0,-0.20261 -0.89445,-0.6561 -1.98766,-1.00775 -1.09324,-0.3517 -1.98768,-0.80914 -1.98768,-1.01658 0,-0.20743 -1.00627,-0.52425 -2.23616,-0.70402 -1.22986,-0.17976 -2.23613,-0.49285 -2.23613,-0.69575 0,-0.20291 -1.3417,-0.65903 -2.9815,-1.01364 -1.63986,-0.35459 -2.98152,-0.78966 -2.98152,-0.96677 0,-0.17714 -1.16979,-0.4733 -2.5995,-0.65818 -1.42973,-0.18487 -2.72158,-0.5286 -2.87075,-0.76388 -0.83576,-1.31809 -30.45949,-1.32197 -31.2951,-0.002 -0.15059,0.23754 -1.4436,0.58312 -2.87331,0.76798 -1.42976,0.18486 -2.59952,0.49107 -2.59952,0.68048 0,0.18941 -1.56528,0.61708 -3.47842,0.95034 -1.91314,0.33323 -3.47844,0.77984 -3.47844,0.99238 0,0.21253 -0.78266,0.52956 -1.73922,0.7045 -0.95658,0.17493 -1.73923,0.48491 -1.73923,0.68886 0,0.20399 -1.11804,0.65016 -2.4846,0.99154 -1.36653,0.34139 -2.48458,0.81436 -2.48458,1.05106 0,0.23672 -0.55904,0.56712 -1.2423,0.73426 -0.68324,0.16718 -1.24231,0.4576 -1.24231,0.64539 0,0.18778 -0.78264,0.64076 -1.7392,1.00661 -0.95659,0.36585 -1.73925,0.84244 -1.73925,1.05915 0,0.21666 -0.32428,0.39394 -0.72067,0.39394 -0.39638,0 -0.89952,0.28524 -1.11807,0.63388 -0.21856,0.34864 -1.12411,0.92 -2.01237,1.26965 -0.88823,0.34969 -1.61498,0.81259 -1.61498,1.02874 0,0.21612 -0.43649,0.52799 -0.96998,0.69302 -0.53347,0.16506 -2.15467,1.37652 -3.60265,2.6922 -1.44799,1.31562 -3.90568,3.53838 -5.46157,4.93941 -1.55585,1.40104 -2.84164,2.78048 -2.85728,3.06545 -0.0157,0.28494 -0.58748,0.99188 -1.27073,1.57096 -0.68327,0.57907 -1.24232,1.3288 -1.24232,1.66608 0,0.33729 -0.44719,0.88546 -0.99383,1.2182 -0.5466,0.33276 -0.99383,0.83667 -0.99383,1.11982 0,0.28319 -0.27952,0.81867 -0.62114,1.19 -1.57772,1.71485 -1.95691,2.27857 -2.43856,3.62533 -0.28376,0.79347 -0.69991,1.44265 -0.92478,1.44265 -0.22487,0 -0.55207,0.63569 -0.72715,1.41263 -0.17507,0.77693 -0.64007,1.53298 -1.03332,1.68004 -0.39325,0.14711 -0.71502,0.80364 -0.71502,1.45895 0,0.65533 -0.33539,1.51845 -0.74536,1.91806 -0.40997,0.39959 -0.74538,1.16243 -0.74538,1.69526 0,0.53279 -0.28475,1.25673 -0.63275,1.60873 -0.63187,0.63915 -1.85184,5.60053 -1.85184,7.53099 0,0.56116 -0.21231,1.09294 -0.47174,1.18174 -0.2595,0.0887 -0.62774,2.72249 -0.81836,5.85265 -0.19055,3.13019 -0.53734,5.69125 -0.77053,5.69125 -0.23318,0 -0.42397,0.42842 -0.42397,0.95201 0,0.52362 -0.71795,1.66791 -1.59545,2.5429 -1.47763,1.47339 -1.83234,1.59086 -4.80357,1.59086 -2.124768,0 -3.278008,-0.20446 -3.415148,-0.60543 -0.11393,-0.33301 -0.52384,-0.60546 -0.91099,-0.60546 -0.38721,0 -0.704,-0.20239 -0.704,-0.44976 0,-0.24738 -0.39132,-0.83291 -0.86959,-1.30122 -0.75728,-0.74144 -0.86651,-1.84519 -0.84564,-8.54301 0.0151,-4.803 0.21957,-7.81592 0.54472,-8.02271 0.28642,-0.18212 0.66868,-1.40914 0.84948,-2.72667 0.18076,-1.31752 0.5021,-2.51632 0.71406,-2.66396 0.21196,-0.14765 0.67586,-1.68525 1.0309,-3.41681 0.35504,-1.73159 0.84364,-3.21868 1.08582,-3.30468 0.24219,-0.0859 0.58406,-0.90333 0.75979,-1.81635 0.17573,-0.91301 0.48917,-1.66001 0.696548,-1.66001 0.20736,0 0.65875,-0.98083 1.00309,-2.1796 0.34435,-1.19879 0.82065,-2.17962 1.05844,-2.17962 0.2378,0 0.43232,-0.31138 0.43232,-0.69194 0,-0.38059 0.28901,-0.97998 0.64218,-1.33202 0.35316,-0.352 0.93932,-1.3484 1.30255,-2.21419 0.36326,-0.86579 0.85268,-1.57416 1.08763,-1.57416 0.23491,0 0.56747,-0.5449 0.73895,-1.21091 0.1715,-0.66599 0.49669,-1.2109 0.72269,-1.2109 0.22598,0 0.68773,-0.74627 1.02611,-1.65834 0.33835,-0.91209 1.13175,-1.92782 1.76315,-2.25718 0.63135,-0.32934 1.29192,-1.04103 1.46792,-1.58152 0.17598,-0.54048 1.40956,-2.01717 2.74127,-3.28152 1.33174,-1.26435 2.42131,-2.45594 2.42131,-2.64798 0,-0.43283 3.77492,-4.07297 4.22376,-4.07297 0.17958,0 1.18414,-0.81735 2.23238,-1.81636 2.33178,-2.22214 4.58914,-3.98071 5.12095,-3.98943 0.21803,-0.002 0.88887,-0.51452 1.49076,-1.1354 0.60189,-0.62091 1.8211,-1.43698 2.70935,-1.81352 0.88825,-0.37651 1.615,-0.84932 1.615,-1.05069 0,-0.20137 0.34243,-0.36613 0.76096,-0.36613 0.41854,0 0.88447,-0.31363 1.03535,-0.69696 0.1509,-0.3833 0.90815,-0.83261 1.68278,-0.99845 0.77462,-0.16582 1.90821,-0.72407 2.51911,-1.24049 0.61091,-0.51645 1.41194,-0.93898 1.78007,-0.93898 0.36812,0 0.66933,-0.17274 0.66933,-0.38389 0,-0.21118 1.00629,-0.64625 2.23616,-0.96686 1.22989,-0.32065 2.23613,-0.79189 2.23613,-1.04725 0,-0.25535 0.78267,-0.60737 1.73923,-0.7823 0.95656,-0.17492 1.7392,-0.46812 1.7392,-0.65157 0,-0.18345 1.3417,-0.60367 2.98153,-0.93381 1.63983,-0.33014 2.98153,-0.79397 2.98153,-1.03077 0,-0.23678 1.22988,-0.58029 2.73303,-0.76334 1.50322,-0.18307 2.73307,-0.49376 2.73307,-0.69043 0,-0.42236 6.14483,-1.46826 8.62618,-1.46826 0.94946,0 1.81945,-0.27246 1.93333,-0.60545 0.27004,-0.78983 27.54246,-0.88641 28.09403,-0.0996 0.19506,0.27826 2.36252,0.78212 4.81656,1.11972 2.45405,0.33758 4.57838,0.78805 4.72074,1.00102 0.14235,0.21293 1.32099,0.5398 2.61919,0.7263 1.2982,0.18648 2.36034,0.509 2.36034,0.71669 0,0.20768 1.22989,0.64585 2.73307,0.97375 1.50317,0.32792 2.73307,0.77424 2.73307,0.99192 0,0.21764 0.78264,0.5388 1.73921,0.71374 0.95659,0.17491 1.73921,0.50596 1.73921,0.73567 0,0.2297 1.11807,0.69697 2.48458,1.03834 1.36655,0.34137 2.48463,0.78012 2.48463,0.97498 0,0.19489 0.65214,0.49395 1.44923,0.66459 0.79709,0.17065 1.56464,0.60334 1.70565,0.96152 0.14103,0.3582 0.92366,0.79415 1.7392,0.96871 0.81558,0.1746 1.60632,0.63108 1.75722,1.01441 0.15091,0.38331 0.6168,0.69695 1.03535,0.69695 0.41854,0 0.76097,0.17726 0.76097,0.39394 0,0.21669 0.77334,0.68971 1.71856,1.05123 0.94518,0.36146 1.8326,0.94706 1.97204,1.30129 0.13948,0.35423 0.4842,0.64404 0.76608,0.64404 0.28189,0 0.95975,0.43592 1.50635,0.96872 0.54661,0.53281 1.29149,0.96873 1.65527,0.96873 0.36378,0 0.95863,0.5413 1.32185,1.20287 0.36326,0.66159 1.09319,1.33674 1.62211,1.50037 0.97053,0.30023 13.77947,12.53485 13.7954,13.17684 0.002,0.19026 0.56374,0.85923 1.24229,1.4866 0.67854,0.62736 1.2337,1.34613 1.2337,1.5973 0,0.25114 0.50624,0.93667 1.12503,1.52336 0.61877,0.58665 1.45692,1.72053 1.86264,2.51974 0.40568,0.79917 1.01751,1.62739 1.35958,1.8404 0.34208,0.21303 0.62194,0.70344 0.62194,1.08981 0,0.38635 0.18189,0.70247 0.40418,0.70247 0.2223,0 0.71126,0.76284 1.08659,1.69527 0.37532,0.9324 0.84653,1.69524 1.0471,1.69524 0.20057,0 0.51203,0.65391 0.69212,1.45308 0.18007,0.79921 0.5243,1.45307 0.76493,1.45307 0.2406,0 0.70547,0.87187 1.03301,1.93744 0.32754,1.0656 0.76596,1.93746 0.9743,1.93746 0.20833,0 0.52612,0.65387 0.7062,1.45306 0.18008,0.79922 0.49756,1.45308 0.70551,1.45308 0.20792,0 0.6731,1.1988 1.0337,2.66396 0.36062,1.46522 0.81868,2.66399 1.0179,2.66399 0.19925,0 0.50906,0.76288 0.68853,1.69527 0.17947,0.93241 0.51245,1.69525 0.73993,1.69525 0.22752,0 0.69743,1.79818 1.04421,3.99596 0.3468,2.19778 0.82607,4.12064 1.06503,4.27303 0.23897,0.15238 0.57561,1.78711 0.74812,3.6327 0.17249,1.84559 0.5108,3.48208 0.75184,3.63659 0.86117,0.55213 1.37342,17.83395 0.85983,29.00771 -0.27513,5.98563 -0.68705,10.99879 -0.91537,11.14027 -0.22829,0.1415 -0.57693,2.05545 -0.7747,4.2532 -0.19776,2.19782 -0.52385,3.99599 -0.72466,3.99599 -0.20084,0 -0.66083,1.85269 -1.02222,4.11706 -0.36137,2.26439 -0.81351,4.11707 -1.00467,4.11707 -0.19121,0 -0.4847,1.12784 -0.65221,2.50638 -0.1675,1.37851 -0.512,2.63178 -0.76556,2.78506 -0.2536,0.15329 -0.73582,1.64093 -1.07165,3.30591 -0.33581,1.66498 -0.78541,3.02726 -0.99915,3.02726 -0.21375,0 -0.53971,0.87185 -0.72441,1.93743 -0.18471,1.06559 -0.51748,1.93743 -0.7395,1.93743 -0.22203,0 -0.67191,1.08982 -0.99972,2.42181 -0.32781,1.33197 -0.77958,2.4218 -1.00392,2.4218 -0.22432,0 -0.55523,0.65388 -0.7353,1.45308 -0.18009,0.79918 -0.52429,1.45308 -0.76492,1.45308 -0.24063,0 -0.70547,0.87185 -1.03301,1.93743 -0.32754,1.06558 -0.76595,1.93742 -0.97428,1.93742 -0.20834,0 -0.52613,0.6539 -0.70621,1.45307 -0.18009,0.79921 -0.50618,1.45309 -0.72458,1.45309 -0.21845,0 -0.69434,0.7084 -1.05761,1.57417 -0.36327,0.86578 -0.9494,1.8622 -1.30258,2.21422 -0.35318,0.35202 -0.64217,0.9514 -0.64217,1.332 0,0.38056 -0.19646,0.69195 -0.43661,0.69195 -0.24013,0 -0.72972,0.70836 -1.08794,1.57416 -0.35819,0.86581 -1.11208,2.01187 -1.67526,2.54675 -0.56317,0.53497 -1.35903,1.62476 -1.76855,2.42183 -0.4095,0.79706 -1.02443,1.62349 -1.36651,1.83654 -0.34208,0.213 -0.62196,0.70342 -0.62196,1.0898 0,0.38635 -0.18584,0.70247 -0.41296,0.70247 -0.22713,0 -0.73026,0.59938 -1.11808,1.33197 -0.38782,0.73258 -1.32005,1.87095 -2.07164,2.52965 -0.75159,0.65874 -1.36651,1.42753 -1.36651,1.70849 0,0.28096 -0.61497,1.04979 -1.36653,1.70849 -0.75162,0.65874 -1.67069,1.77308 -2.04238,2.47634 -0.37174,0.70326 -1.18568,1.54462 -1.80876,1.86967 -0.6231,0.32506 -1.43704,1.15764 -1.80875,1.85022 -0.37173,0.6926 -1.96163,2.50654 -3.53314,4.03099 -1.57151,1.52447 -2.85731,2.9315 -2.85731,3.12674 0,0.19521 -1.34166,1.64262 -2.9815,3.2164 -1.63984,1.57376 -2.9815,3.03949 -2.9815,3.25708 0,0.21762 -1.90091,2.32686 -4.22422,4.68719 -7.2629,7.37862 -8.19878,8.41333 -8.19878,9.06455 0,0.34839 -0.53441,0.9122 -1.18761,1.25295 -0.65317,0.34072 -1.49172,1.19493 -1.86345,1.8982 -0.37169,0.70326 -1.29076,1.81763 -2.04237,2.47633 -0.75157,0.65873 -1.36654,1.4829 -1.36654,1.83155 0,0.34863 -0.31522,0.75178 -0.70054,0.89592 -0.38527,0.14413 -0.83677,0.79114 -1.00329,1.43787 -0.16653,0.64672 -0.52767,1.17584 -0.8025,1.17584 -0.27489,0 -0.71232,0.54491 -0.97208,1.21091 -0.25977,0.66598 -0.68371,1.21089 -0.94206,1.21089 -0.25835,0 -0.61298,0.63568 -0.78805,1.4126 -0.17507,0.77693 -0.61896,1.5251 -0.98647,1.66257 -0.36749,0.13742 -0.81471,0.90032 -0.99382,1.69522 -0.17915,0.79497 -0.64748,1.56571 -1.0407,1.71282 -0.39328,0.14707 -0.71503,0.6012 -0.71503,1.00916 0,0.40797 -0.20295,0.74174 -0.451,0.74174 -0.24802,0 -0.73755,1.08982 -1.08776,2.4218 -0.35023,1.33197 -0.79389,2.42178 -0.9859,2.42178 -0.19201,0 -0.4894,0.54492 -0.66091,1.21092 -0.17148,0.666 -0.50885,1.2109 -0.74966,1.2109 -0.24086,0 -0.70613,1.0898 -1.03396,2.42179 -0.32781,1.33202 -0.78724,2.42178 -1.02089,2.42178 -0.23365,0 -0.57166,0.76288 -0.75111,1.69525 -0.17944,0.93246 -0.49595,1.69527 -0.70334,1.69527 -0.20732,0 -0.65875,0.98083 -1.00309,2.17961 -0.34436,1.19883 -0.81638,2.17958 -1.04896,2.17958 -0.23258,0 -0.56315,0.54496 -0.73465,1.21092 -0.1715,0.66608 -0.49341,1.21096 -0.71536,1.21096 -0.22198,0 -0.55426,0.66856 -0.73839,1.4858 -0.18412,0.81712 -0.64916,1.60336 -1.03333,1.74708 -0.38418,0.14374 -0.6985,0.57172 -0.6985,0.95117 0,0.3795 -0.32174,0.81033 -0.71503,0.95731 -0.39324,0.1471 -0.86157,0.91788 -1.04068,1.71285 -0.17913,0.79497 -0.64004,1.56293 -1.02422,1.70659 -0.38418,0.14373 -0.69851,0.52058 -0.69851,0.83745 0,0.59151 -1.07077,2.12529 -2.60884,3.73692 -0.47827,0.5011 -0.86962,1.08074 -0.86962,1.28796 0,0.20721 -0.39132,0.73072 -0.86958,1.16351 -1.43291,1.2964 -3.10575,3.1777 -3.10575,3.4927 0,0.4907 -1.68773,1.9487 -3.06617,2.6491 -0.7132,0.3623 -1.56957,1.1556 -1.90301,1.7629 -0.33349,0.6074 -1.19485,1.4008 -1.91416,1.7632 -0.71933,0.3623 -1.75688,1.1079 -2.30569,1.6567 -0.54882,0.5489 -1.72458,1.2838 -2.61281,1.633 -0.88826,0.3491 -1.61498,0.8027 -1.61498,1.008 0,0.205 -0.55904,0.5097 -1.24231,0.6769 -0.68328,0.1671 -1.24232,0.4895 -1.24232,0.7161 0,0.2266 -1.00626,0.6867 -2.23612,1.0224 -1.22987,0.3357 -2.23613,0.7827 -2.23613,0.9932 0,0.2106 -0.72674,0.5365 -1.61499,0.7244 -0.88827,0.1878 -1.72754,0.5124 -1.86509,0.7215 -0.13755,0.2087 -1.70287,0.6646 -3.47842,1.0126 -1.7756,0.3483 -3.34766,0.7948 -3.49343,0.9924 -0.14575,0.1976 -2.10239,0.5088 -4.34801,0.6912 -2.24568,0.1826 -4.08303,0.5187 -4.08303,0.7467 0,0.2281 -3.3542,0.4148 -7.45377,0.4148 -4.09956,0 -7.45381,-0.1961 -7.45381,-0.4354 z"
       id="path3840"
       inkscape:connector-curvature="0"
       sodipodi:nodetypes="csscscccsccsscsssccccsssccccccssscscscscscscsscsccsccccssccsssssscssscccsscscccscccsscsccsscssscssssssscsssssssscsssssssccscssscccssssscsssccssccscccssssscssscscssccssssscsssccssscscscssssssscsssssssscscssssscsscsssscssscscssscssssscsssscscscsssssssscsscssssscscsscscsssssssscssccsssssssssssccsssscssscsccssscsscscssscssscsscscscsssssccssssscssscsssssccscssscsscscsssssscscsccsssccccsssscscscscscscsscscscscsccsssscsssscsccsscc" />
    <path
       sodipodi:type="arc"
       style="fill:none;stroke:#ef6b00;stroke-width:34.48510361000000302;stroke-linecap:butt;stroke-linejoin:miter;stroke-miterlimit:4;stroke-opacity:1;stroke-dasharray:none;marker-end:none"
       id="path2985-0"
       sodipodi:cx="217.5"
       sodipodi:cy="248.21428"
       sodipodi:rx="193.21428"
       sodipodi:ry="193.21428"
       d="M 210.75692,55.117701 A 193.21428,193.21428 0 0 1 410.59658,254.95736"
       transform="matrix(1.1619423,0,0,1.1579036,-59.433598,518.13291)"
       sodipodi:start="4.6774824"
       sodipodi:end="6.3180919"
       sodipodi:open="true" />
    <path
       sodipodi:type="arc"
       style="fill:none;stroke:#ef6b00;stroke-width:51.18825149999999979;stroke-linecap:butt;stroke-miterlimit:4;stroke-opacity:1;stroke-dasharray:none"
       id="path2985-0-1"
       sodipodi:cx="217.5"
       sodipodi:cy="248.21428"
       sodipodi:rx="193.21428"
       sodipodi:ry="193.21428"
       d="M 210.75692,55.117701 A 193.21428,193.21428 0 0 1 410.59658,254.95736"
       transform="matrix(0.78279094,0,0,0.78007004,23.031813,611.91656)"
       sodipodi:start="4.6774824"
       sodipodi:end="6.3180919"
       sodipodi:open="true" />
  </g>
</svg>
